<svg width="32" height="32" viewBox="0 0 32 32" fill="none" xmlns="http://www.w3.org/2000/svg">
<path d="M10.6665 24L13.7198 27.0534C14.0185 27.3541 14.3737 27.5928 14.765 27.7557C15.1563 27.9186 15.576 28.0024 15.9998 28.0024C16.4237 28.0024 16.8434 27.9186 17.2347 27.7557C17.626 27.5928 17.9812 27.3541 18.2798 27.0534L21.3332 24H23.9998C25.4143 24 26.7709 23.4382 27.7711 22.438C28.7713 21.4378 29.3332 20.0812 29.3332 18.6667V9.33333C29.3332 7.91885 28.7713 6.56237 27.7711 5.56217C26.7709 4.56198 25.4143 4 23.9998 4H7.99984C6.58535 4 5.22879 4.56198 4.2286 5.56217C3.2284 6.56237 2.6665 7.91885 2.6665 9.33333V18.6667C2.6665 20.0812 3.2284 21.4378 4.2286 22.438C5.22879 23.4382 6.58535 24 7.99984 24H10.6665Z" stroke="black" stroke-width="1.5" stroke-linecap="round" stroke-linejoin="round"/>
<path d="M22.6668 12H9.3335" stroke="black" stroke-width="1.5" stroke-linecap="round" stroke-linejoin="round"/>
<path d="M17.3335 16H9.3335" stroke="black" stroke-width="1.5" stroke-linecap="round" stroke-linejoin="round"/>
</svg>
