<svg width="103" height="112" viewBox="0 0 103 112" fill="none" xmlns="http://www.w3.org/2000/svg">
<path d="M5 88C6.97615 87.6693 9.04438 87.6458 11 87" stroke="#A0D468" stroke-width="10" stroke-miterlimit="1.5" stroke-linecap="round" stroke-linejoin="round"/>
<path d="M19.2327 66C18.4887 69.6718 19.7444 73.3255 20 77" stroke="#A0D468" stroke-width="10" stroke-miterlimit="1.5" stroke-linecap="round" stroke-linejoin="round"/>
<path d="M20 95C20 98.8091 20 103.233 20 107" stroke="#A0D468" stroke-width="10" stroke-miterlimit="1.5" stroke-linecap="round" stroke-linejoin="round"/>
<path d="M31 86C33.7128 86 36.3177 86 39 86" stroke="#A0D468" stroke-width="10" stroke-miterlimit="1.5" stroke-linecap="round" stroke-linejoin="round"/>
<path d="M45 5C45.3504 9.00387 45.8593 12.9885 46 17" stroke="#A0D468" stroke-width="10" stroke-miterlimit="1.5" stroke-linecap="round" stroke-linejoin="round"/>
<path d="M28 29C30.9916 28.5646 34.0214 28.4199 37 28" stroke="#A0D468" stroke-width="10" stroke-miterlimit="1.5" stroke-linecap="round" stroke-linejoin="round"/>
<path d="M47 36C47.6284 40.8217 47.7424 46.2974 49 51" stroke="#A0D468" stroke-width="10" stroke-miterlimit="1.5" stroke-linecap="round" stroke-linejoin="round"/>
<path d="M58 26C60.9977 25.4835 63.9994 25.3974 67 25" stroke="#A0D468" stroke-width="10" stroke-miterlimit="1.5" stroke-linecap="round" stroke-linejoin="round"/>
<path d="M82 68C82.1175 72.0095 82.579 76.0003 83 80" stroke="#A0D468" stroke-width="10" stroke-miterlimit="1.5" stroke-linecap="round" stroke-linejoin="round"/>
<path d="M67 88C69.6753 88 72.3312 88 75 88" stroke="#A0D468" stroke-width="10" stroke-miterlimit="1.5" stroke-linecap="round" stroke-linejoin="round"/>
<path d="M91 88C93.3388 87.677 95.6696 87.3494 98 87" stroke="#A0D468" stroke-width="10" stroke-miterlimit="1.5" stroke-linecap="round" stroke-linejoin="round"/>
<path d="M84 96C84 99.5924 84 103.398 84 107" stroke="#A0D468" stroke-width="10" stroke-miterlimit="1.5" stroke-linecap="round" stroke-linejoin="round"/>
</svg>
