<svg width="82" height="105" viewBox="0 0 82 105" fill="none" xmlns="http://www.w3.org/2000/svg">
<g style="mix-blend-mode:overlay">
<path fill-rule="evenodd" clip-rule="evenodd" d="M44.3436 9C44.3955 23.34 39.5237 49.2794 77 55.549C53.736 58.9104 44.8458 76.9109 44.348 100C43.7774 82.5715 46.1653 62.4469 8 56.9309C44.6302 54.0315 44.1221 23.7368 44.3436 9Z" stroke="#A0D468" stroke-width="10" stroke-miterlimit="1.5" stroke-linecap="round" stroke-linejoin="round"/>
</g>
<g style="mix-blend-mode:overlay">
<path d="M5 5C11.0303 12.01 15.8116 20.1414 22 27" stroke="#A0D468" stroke-width="10" stroke-miterlimit="1.5" stroke-linecap="round" stroke-linejoin="round"/>
</g>
<g style="mix-blend-mode:overlay">
<path d="M63 32C67.7174 28.4367 72.1778 24.3795 76 20" stroke="#A0D468" stroke-width="10" stroke-miterlimit="1.5" stroke-linecap="round" stroke-linejoin="round"/>
</g>
<g style="mix-blend-mode:overlay">
<path d="M23 80C16.9995 85.6002 11.4271 91.835 6 98" stroke="#A0D468" stroke-width="10" stroke-miterlimit="1.5" stroke-linecap="round" stroke-linejoin="round"/>
</g>
<g style="mix-blend-mode:overlay">
<path d="M61 93C61.6068 94.045 62.3389 94.9973 63 96" stroke="#A0D468" stroke-width="10" stroke-miterlimit="1.5" stroke-linecap="round" stroke-linejoin="round"/>
</g>
</svg>
