<svg width="32" height="32" viewBox="0 0 32 32" fill="none" xmlns="http://www.w3.org/2000/svg">
<path d="M16.0003 28.3327C22.8118 28.3327 28.3337 22.8109 28.3337 15.9993C28.3337 9.18784 22.8118 3.66602 16.0003 3.66602C9.18881 3.66602 3.66699 9.18784 3.66699 15.9993C3.66699 22.8109 9.18881 28.3327 16.0003 28.3327Z" stroke="black" stroke-width="1.5" stroke-linecap="round" stroke-linejoin="round"/>
<path d="M20.7058 11.2804C19.4586 10.0292 17.7657 9.32422 15.9991 9.32031C14.9031 9.32008 13.8239 9.59011 12.8571 10.1064C11.8903 10.6228 11.0658 11.3695 10.4564 12.2805C9.84704 13.1916 9.47164 14.2388 9.36355 15.3295C9.25546 16.4202 9.418 17.5208 9.83669 18.5337C10.2554 19.5466 10.9174 20.4407 11.764 21.1367C12.6107 21.8328 13.6158 22.3093 14.6906 22.5243C15.7654 22.7392 16.8765 22.6857 17.9257 22.3687C18.9749 22.0518 19.9298 21.481 20.7058 20.707" stroke="black" stroke-width="1.5" stroke-linecap="round" stroke-linejoin="round"/>
</svg>
