<svg width="449" height="330" viewBox="0 0 449 330" fill="none" xmlns="http://www.w3.org/2000/svg">
<path d="M155.677 260.854C125.282 246.67 92.4806 221.341 52.334 181.194L51.9541 180.814L76.0167 147.76L76.5233 148.013C90.8342 155.865 105.525 162.957 120.596 169.163C145.165 179.294 165.808 184.867 181.892 185.627L182.652 185.753L156.31 261.107L155.677 260.854Z" fill="#0C662F"/>
<path d="M180.879 188.921L156.816 257.816C129.461 245.025 97.2931 221.595 54.3604 178.663L59.5528 171.317L74.4969 150.801C89.0611 158.779 104.005 165.998 119.203 172.33C144.025 182.462 164.668 188.034 180.879 188.921Z" fill="white"/>
<path d="M47.6482 109.261L51.1943 115.34L34.7304 126.611L30.4244 119.012C27.7649 114.2 29.4113 108.247 34.0972 105.461C38.9097 102.802 44.862 104.448 47.6482 109.261Z" fill="white"/>
<path d="M77.2828 121.42L64.2383 130.665L63.985 130.791C63.3518 131.171 63.2251 132.058 63.6051 132.564C63.7317 132.818 64.1117 133.071 64.4916 133.071C64.8715 133.198 65.2515 133.071 65.5048 132.944L65.758 132.691C67.4044 131.551 69.4308 131.171 71.3304 131.425C73.2301 131.805 74.8765 132.944 76.0163 134.464C76.143 134.591 76.2696 134.717 76.2696 134.844L76.9028 135.857C78.9291 139.403 77.6627 143.836 74.2433 145.862C73.6101 146.115 73.3568 146.875 73.6101 147.382C73.7367 147.762 73.99 148.015 74.2433 148.142C74.4966 148.268 74.8765 148.395 75.2564 148.268C75.3831 148.142 75.5097 148.142 75.5097 148.142C79.0558 146.115 83.615 147.382 85.6413 150.928L86.9078 152.954C87.7943 154.727 88.0476 156.627 87.541 158.527C87.0344 160.426 85.768 162.073 83.995 162.959L59.0458 177.397C51.1938 181.829 41.1889 179.17 36.7563 171.318L28.651 157.007C23.5852 148.142 25.8648 136.87 33.9701 130.538C34.2234 130.285 34.6033 130.158 34.8566 129.905L34.9833 129.778L36.1231 129.018L52.4603 117.62L53.6001 116.86L54.7399 116.101L67.0245 107.615C67.4044 107.362 67.6577 107.109 68.0377 106.982C72.0903 104.576 77.4094 105.969 79.8157 110.148C81.9686 113.948 80.8288 118.887 77.2828 121.42Z" fill="white"/>
<path d="M51.0681 182.841C43.976 182.841 37.5171 179.041 33.971 172.963L25.8657 158.652C19.9134 148.393 22.4463 135.349 31.8181 128.003L27.6388 120.658C24.0927 114.326 26.2457 106.22 32.5779 102.674C38.9102 99.1283 47.0155 101.281 50.5616 107.614L53.6011 112.933L65.1258 104.954C65.3791 104.827 65.5057 104.701 65.759 104.447C71.2047 100.775 78.5502 102.041 82.2229 107.487C85.8956 112.933 84.6291 120.278 79.1834 123.951L72.8511 128.51C75.5107 129.143 77.7903 130.916 79.1834 133.196L79.31 133.323L79.8166 134.336C81.5896 137.375 81.7163 141.048 80.1966 144.087C83.616 144.467 86.6555 146.367 88.4285 149.406L89.6949 151.686C92.6078 156.752 90.7081 163.211 85.6423 166.124L82.7295 167.897C82.4762 168.023 82.0962 168.15 81.7163 168.15C80.9564 168.15 80.3232 167.77 80.0699 167.137C79.5633 166.25 79.8166 164.984 80.7031 164.477L83.7426 162.831C87.0354 161.058 88.0486 156.879 86.2755 153.712L85.0091 151.559C83.1094 148.393 79.0567 147.254 75.764 149.027L75.384 149.153C75.2574 149.153 75.0041 149.28 74.7508 149.28C73.8643 149.28 73.1044 148.773 72.8511 147.887C72.5978 147 72.9778 145.987 73.8643 145.607C77.0304 143.707 78.1702 139.655 76.3972 136.362L75.764 135.476L75.5107 135.096C74.2442 133.323 72.0913 132.309 69.9383 132.309C68.5452 132.309 67.1521 132.816 66.0123 133.576L65.759 133.829V133.956C65.3791 134.209 64.9991 134.209 64.7458 134.209C64.1126 134.209 63.4794 133.829 63.0994 133.323C62.5929 132.436 62.8462 131.17 63.7327 130.663L63.986 130.536L76.9038 121.291C80.5765 118.885 81.7163 114.072 79.31 110.273C76.9038 106.474 72.0913 105.461 68.2919 107.867C67.912 107.994 67.6587 108.247 67.2787 108.5C67.2787 108.5 67.1521 108.5 67.1521 108.627L54.8675 117.112L53.7277 117.872L52.5879 118.632L36.2507 129.903L35.1109 130.663L34.9842 130.79L34.2243 131.423C26.3723 137.502 24.0927 148.393 29.0319 157.132L37.2638 171.063C39.2901 174.736 42.7096 177.395 46.7622 178.408C50.8149 179.548 55.1208 179.041 58.6669 176.889L59.8067 176.255C60.1866 176.129 60.4399 176.002 60.8198 176.002C60.9465 176.002 61.0731 176.129 61.3264 176.129C62.0863 176.382 62.7195 177.015 62.8462 177.902C62.9728 178.662 62.4662 179.421 61.833 179.801L60.6932 180.435C57.7803 182.081 54.3609 182.967 51.0681 182.841ZM39.0369 104.827C33.971 104.827 29.7918 109.007 29.7918 114.072C29.7918 115.719 30.1717 117.239 30.9316 118.632L34.9842 125.724L50.3083 115.086L47.1421 109.513C45.3691 106.6 42.3296 104.827 39.0369 104.827Z" fill="#0C662F"/>
<path d="M80.4962 80.4962C95.8346 65.1579 95.8346 40.3459 80.4962 25.0075C62.9023 7.41356 15.985 2.90226 2 2C2.90226 15.985 7.41354 62.9023 25.0075 80.4962C40.1203 95.8346 65.1579 95.8346 80.4962 80.4962Z" fill="#96CA3A"/>
<path d="M3.40152 0H2.49445C1.81414 0.22716 1.36061 0.454305 0.907072 0.908624C0.453536 1.36294 0 2.2716 0 2.95308V3.18022V3.40739C1.13384 17.7184 5.6692 66.1034 24.2642 84.5033C34.4687 94.7255 49.2087 99.0415 63.495 96.0885C71.4319 94.4984 78.9153 90.4095 84.5844 84.5033C101.139 67.9207 101.139 40.8887 84.5844 24.0789C65.9895 5.67897 17.6879 0.908638 3.40152 0ZM10.4313 38.1628C9.07072 32.4838 7.25658 17.9456 6.12274 11.1308L34.242 39.0714H10.6581L10.4313 38.1628ZM75.7405 82.2317C71.4319 85.6391 66.443 87.9107 61.0006 89.0465C48.9819 91.5453 36.5096 87.9107 27.8925 79.2786C26.3051 77.4614 24.7177 75.6441 23.3571 73.5997L22.2233 71.7824H67.1233L76.8743 81.5502L75.7405 82.2317ZM18.8217 65.4219L18.595 64.7405C16.1005 59.0615 14.0596 52.9282 12.4722 47.022L12.0187 45.4319L40.5915 45.659L60.3203 65.4219H18.8217ZM51.0228 13.6296L51.7031 14.0839V47.4763L10.8849 6.58761C19.502 7.72341 42.6324 11.358 51.0228 13.6296ZM82.09 75.8713L81.4097 76.7799L58.5061 53.8368V16.1283L60.0935 16.8098C67.1233 19.3085 73.6996 23.1703 79.142 28.1678C91.841 41.1159 93.2016 61.5602 82.09 75.8713Z" fill="#0C662F"/>
<path d="M397.695 279.093C397.695 314.554 381.358 325.825 372.999 325.825H105.651C105.651 258.703 150.864 208.805 150.864 160.047C150.864 132.944 142.378 124.333 142.378 99.0035C142.378 87.2255 146.558 76.8406 153.903 67.0889C153.017 64.0494 152.51 60.8833 152.383 57.7172C152.383 51.005 156.183 44.4194 164.161 44.4194C168.214 44.4194 172.267 45.4326 175.939 47.3323C184.171 43.153 193.29 41 202.662 41C219.379 41 232.043 43.7862 243.061 50.4984C246.101 46.3191 249.774 44.2928 256.359 44.2928C265.604 44.2928 269.277 53.1579 269.277 58.6037C269.277 63.1629 268.011 67.7221 265.604 71.5215C269.784 76.2074 273.963 80.7666 278.522 86.5923C302.331 117.24 322.595 149.408 340.578 173.471C358.562 197.533 397.695 243.506 397.695 279.093Z" fill="white" stroke="#0C662F" stroke-width="7.32" stroke-linecap="round" stroke-linejoin="round"/>
<path d="M159.096 64.1761C159.096 64.1761 154.917 56.9573 157.956 53.9178C157.956 53.9178 160.489 50.625 167.581 55.9441C164.415 58.3504 161.502 61.0099 159.096 64.1761Z" fill="#0C662F"/>
<path d="M246.735 55.9441C249.394 58.3504 251.927 61.0099 254.207 63.9227C257.373 60.8833 263.199 54.4244 258.766 50.625C257.626 49.7385 254.46 47.5855 246.735 55.9441Z" fill="#0C662F"/>
<path d="M154.791 50.4986C157.704 45.4328 167.076 48.4723 172.015 53.1582" stroke="#0C662F" stroke-width="4.88" stroke-linecap="round" stroke-linejoin="round"/>
<path d="M262.311 46.5703C268.517 49.8631 264.084 61.0079 258.259 67.0868" stroke="#0C662F" stroke-width="4.88" stroke-linecap="round" stroke-linejoin="round"/>
<path d="M422.392 110.655C422.012 110.782 410.74 113.315 407.194 119.521L406.308 121.674C404.028 126.739 400.482 131.045 395.923 134.211C395.796 134.211 395.669 134.338 395.543 134.465C395.669 137.504 403.775 135.225 407.701 132.312C407.701 132.312 403.141 138.897 389.59 145.103C388.071 145.736 386.551 146.243 385.031 146.623C389.084 147.129 393.643 145.356 398.709 142.317C398.709 142.317 396.176 147.509 378.066 155.741C377.053 156.248 376.039 156.628 375.026 156.881C377.559 158.147 382.118 156.121 387.058 153.968C387.058 153.968 384.018 158.401 367.807 165.746C367.048 166.126 366.161 166.506 365.401 166.759C367.554 167.646 369.074 167.519 376.799 164.733C376.799 164.733 370.974 170.559 359.702 175.624C358.942 176.004 358.309 176.258 357.549 176.511C359.702 179.424 368.441 173.978 368.694 173.851C368.441 174.105 359.955 183.603 354.13 186.136C350.964 187.656 347.544 188.542 344.125 188.795C343.618 188.795 342.985 188.795 342.478 188.795C335.386 188.922 328.801 191.962 323.988 197.154L306.511 216.151L303.472 215.391L322.215 190.189C325.001 186.263 325.888 181.323 324.368 176.764C323.988 175.371 323.608 174.105 323.608 172.712C322.722 157.767 336.653 144.216 336.653 144.216C333.36 150.295 332.094 153.715 333.107 159.161C335.006 148.649 343.745 138.897 348.684 134.085C345.898 138.391 344.758 140.29 344.505 146.243C347.924 135.098 358.182 127.373 358.436 127.119C355.27 130.539 355.143 134.211 354.13 138.644C358.056 130.285 363.755 122.813 370.847 116.861C368.061 120.787 367.048 128.006 367.048 130.159C369.96 123.573 373.127 117.114 380.472 111.035C379.079 113.442 377.432 114.835 377.939 118.634C381.738 112.808 386.171 109.262 389.717 107.616C393.263 105.969 400.735 103.817 403.775 104.196C403.775 104.196 394.783 106.729 394.15 111.162C394.276 113.948 393.896 116.734 393.136 119.394C395.036 118.634 397.062 118.127 399.215 117.874C402.508 117.368 405.548 116.354 408.461 114.708C412.007 112.682 417.072 110.529 422.392 110.655Z" fill="#0C662F"/>
<path d="M358.182 180.69C354.13 183.729 349.19 185.629 344.125 186.009C340.452 186.135 336.906 184.869 334.12 182.336C336.399 179.423 339.819 177.65 343.491 177.27C348.557 177.017 353.623 178.283 358.182 180.69Z" fill="#FFCF07"/>
<path d="M363.754 169.672C360.082 172.585 355.776 174.485 351.09 174.992C347.67 175.245 344.378 174.232 341.845 171.952C343.871 169.293 346.911 167.519 350.33 167.013C354.889 166.76 359.575 167.646 363.754 169.672Z" fill="#FFCF07"/>
<path d="M372.494 159.285C368.821 162.451 364.388 164.478 359.576 165.111C356.156 165.491 352.61 164.478 349.951 162.325C351.977 159.412 355.017 157.512 358.563 157.005C363.375 156.499 368.188 157.259 372.494 159.285Z" fill="#FFCF07"/>
<path d="M382.752 149.155C379.332 152.194 375.153 154.094 370.72 154.854C367.428 155.234 364.262 154.347 361.602 152.448C363.502 149.788 366.288 147.888 369.581 147.382C374.013 146.622 378.572 147.255 382.752 149.155Z" fill="#FFCF07"/>
<path d="M394.909 137.63C391.743 140.67 387.69 142.823 383.384 143.709C380.218 144.342 376.925 143.582 374.393 141.683C376.166 138.897 378.825 136.997 381.991 136.364C386.297 135.604 390.856 135.984 394.909 137.63Z" fill="#FFCF07"/>
<path d="M403.395 120.658C401.369 125.091 398.203 128.89 394.15 131.676C391.111 133.576 387.438 134.209 384.019 133.323C384.652 129.903 386.678 126.737 389.591 124.711C393.77 122.051 398.583 120.658 403.395 120.658Z" fill="#FFCF07"/>
<path d="M341.465 147.635C343.618 152.321 344.378 157.513 343.745 162.706C343.111 166.378 341.085 169.671 338.046 171.824C335.766 168.911 334.753 165.112 335.133 161.439C335.893 156.373 338.172 151.561 341.465 147.635Z" fill="#FFCF07"/>
<path d="M352.23 137.756C353.877 142.442 354.257 147.508 353.244 152.447C352.357 155.993 350.078 159.032 347.038 160.805C345.012 157.766 344.252 154.093 345.012 150.547C346.152 145.735 348.684 141.302 352.23 137.756Z" fill="#FFCF07"/>
<path d="M364.008 129.271C365.402 133.957 365.402 139.023 364.008 143.709C362.995 147.128 360.589 149.915 357.423 151.561C355.65 148.522 355.143 144.849 356.03 141.429C357.55 136.744 360.209 132.438 364.008 129.271Z" fill="#FFCF07"/>
<path d="M376.799 121.42C377.686 125.853 377.306 130.412 375.786 134.718C374.519 137.757 372.113 140.163 369.074 141.43C367.681 138.517 367.554 135.098 368.567 132.058C370.34 127.752 373.253 124.079 376.799 121.42Z" fill="#FFCF07"/>
<path d="M383.808 103.318C383.935 107.751 382.669 112.184 380.389 115.983C378.616 118.769 375.83 120.669 372.664 121.302C371.777 118.136 372.284 114.843 373.93 112.057C376.463 108.131 379.882 105.218 383.808 103.318Z" fill="#FFCF07"/>
<path d="M315.25 90.2637C315.377 90.6436 319.682 101.408 316.77 107.867L315.503 109.894C312.59 114.58 311.197 120.025 311.197 125.598C311.197 125.724 311.197 125.851 311.197 125.978C308.664 127.624 305.751 119.772 306.005 114.833C306.005 114.833 303.219 122.305 306.005 136.996C306.258 138.516 306.765 140.162 307.271 141.555C304.612 138.515 303.345 133.703 302.965 127.877C302.965 127.877 300.179 132.943 303.852 152.446C304.105 153.46 304.358 154.599 304.612 155.613C302.079 154.346 301.192 149.407 300.052 144.088C300.052 144.088 298.153 149.154 301.446 166.757C301.699 167.644 301.826 168.404 302.079 169.29C300.052 168.024 299.293 166.757 297.14 158.779C297.14 158.779 295.747 166.757 298.026 178.915C298.153 179.675 298.279 180.435 298.533 181.195C294.86 181.195 294.353 170.81 294.353 170.557C294.227 170.937 291.441 183.221 292.58 189.554C293.214 192.973 294.353 196.266 296.126 199.305C296.38 199.812 296.633 200.192 297.013 200.572C301.066 206.397 302.332 213.616 300.812 220.455L295.367 245.657L297.773 247.81L307.651 218.049C309.171 213.489 312.844 209.943 317.403 208.55C318.796 208.17 320.062 207.537 321.202 206.777C333.867 198.925 337.033 179.675 337.033 179.675C333.993 185.881 331.84 188.92 326.901 191.2C334.5 183.601 337.286 170.81 338.426 163.971C336.526 168.657 335.64 170.81 330.954 174.356C338.046 165.238 338.553 152.32 338.553 151.94C337.666 156.499 334.753 158.779 331.587 162.198C336.146 154.093 338.933 145.228 339.692 135.983C338.173 140.542 332.854 145.608 331.081 146.747C334.88 140.542 338.299 134.336 339.059 124.838C337.919 127.244 337.666 129.524 334.373 131.297C336.906 124.838 337.413 119.139 336.653 115.213C335.893 111.287 333.36 103.941 331.334 101.788C331.334 101.788 334.373 110.654 331.207 113.693C328.928 115.213 326.775 117.112 325.002 119.265C324.495 117.239 323.735 115.339 322.722 113.44C321.202 110.527 320.316 107.361 319.936 104.068C319.429 99.0022 317.783 94.3163 315.25 90.2637Z" fill="#0C662F"/>
<path d="M294.987 183.096C294.734 188.162 296 193.227 298.66 197.66C300.559 200.826 303.725 202.979 307.398 203.739C308.411 200.193 307.905 196.393 306.132 193.101C303.345 188.921 299.546 185.375 294.987 183.096Z" fill="#FFCF07"/>
<path d="M300.686 172.203C300.433 176.889 301.446 181.448 303.599 185.628C305.245 188.54 308.158 190.693 311.451 191.453C312.464 188.287 312.084 184.741 310.564 181.828C308.285 177.649 304.865 174.356 300.686 172.203Z" fill="#FFCF07"/>
<path d="M304.105 159.033C303.725 163.846 304.612 168.658 306.765 172.964C308.411 176.004 311.324 178.283 314.617 179.296C315.756 176.004 315.503 172.331 313.983 169.165C311.83 164.986 308.411 161.439 304.105 159.033Z" fill="#FFCF07"/>
<path d="M306.639 144.85C306.132 149.282 307.019 153.841 308.918 157.894C310.438 160.807 313.097 162.96 316.137 163.973C317.277 160.934 317.15 157.514 315.757 154.601C313.604 150.549 310.438 147.129 306.639 144.85Z" fill="#FFCF07"/>
<path d="M308.917 128.256C308.284 132.688 308.791 137.121 310.564 141.174C311.957 144.087 314.363 146.366 317.403 147.506C318.669 144.593 318.669 141.174 317.403 138.261C315.63 134.208 312.59 130.662 308.917 128.256Z" fill="#FFCF07"/>
<path d="M318.035 111.541C315.502 115.72 314.236 120.533 314.363 125.472C314.616 129.018 316.136 132.311 318.795 134.717C321.328 132.184 322.721 128.765 322.595 125.219C322.341 120.28 320.822 115.594 318.035 111.541Z" fill="#FFCF07"/>
<path d="M329.18 193.354C324.115 193.354 319.175 194.747 314.996 197.406C311.957 199.432 309.804 202.599 309.17 206.145C312.716 207.031 316.389 206.525 319.555 204.625C323.735 201.839 327.027 197.913 329.18 193.354Z" fill="#FFCF07"/>
<path d="M331.461 177.777C326.395 178.664 321.709 181.07 317.91 184.49C315.25 187.149 313.73 190.695 313.73 194.368C317.403 194.621 321.076 193.355 323.862 190.822C327.661 187.276 330.321 182.717 331.461 177.777Z" fill="#FFCF07"/>
<path d="M333.36 163.213C328.547 164.479 324.115 167.139 320.695 170.812C318.289 173.598 317.149 177.144 317.402 180.69C321.075 180.563 324.494 179.044 326.901 176.384C330.32 172.838 332.6 168.152 333.36 163.213Z" fill="#FFCF07"/>
<path d="M333.613 148.648C328.928 150.295 324.875 153.081 321.835 156.88C319.682 159.667 318.796 163.339 319.303 166.759C322.849 166.505 326.141 164.732 328.294 161.946C331.334 158.147 333.107 153.588 333.613 148.648Z" fill="#FFCF07"/>
<path d="M332.726 133.703C328.547 135.476 325.001 138.389 322.468 142.188C320.695 144.975 320.062 148.267 320.822 151.56C324.114 151.054 326.901 149.154 328.8 146.494C331.206 142.568 332.6 138.262 332.726 133.703Z" fill="#FFCF07"/>
<path d="M333.107 116.354C329.434 118.886 326.521 122.432 324.621 126.485C323.355 129.525 323.482 132.817 324.748 135.857C327.787 134.717 330.194 132.437 331.587 129.525C333.36 125.345 333.866 120.786 333.107 116.354Z" fill="#FFCF07"/>
<path d="M445.567 189.3C445.187 189.173 434.549 187.021 429.23 190.947L427.71 192.466C423.784 195.886 419.098 198.165 413.906 199.052C413.779 199.052 413.652 199.052 413.526 199.052C412.386 201.711 420.238 202.851 424.671 201.965C424.671 201.965 418.338 205.764 404.407 205.764C402.888 205.764 401.368 205.637 399.848 205.384C403.141 207.284 407.7 207.664 413.273 207.03C413.273 207.03 409.093 210.45 390.476 210.45C389.463 210.45 388.45 210.45 387.437 210.197C389.083 212.223 393.769 212.223 398.835 212.476C398.835 212.476 394.529 215.009 377.812 215.009C376.925 215.009 376.165 215.009 375.279 214.882C376.799 216.529 378.065 217.035 385.791 217.669C379.712 219.568 373.379 220.581 367.047 220.455C366.287 220.455 365.527 220.455 364.767 220.328C365.527 223.621 375.026 222.355 375.406 222.355C375.026 222.481 364.261 227.167 358.182 227.167C354.889 227.167 351.723 226.66 348.557 225.521C348.05 225.267 347.67 225.141 347.29 224.887C341.211 222.228 334.373 222.228 328.42 224.761L306.257 234.133L303.851 232.233L329.56 218.049C333.486 215.896 336.146 211.97 336.652 207.41C336.779 206.144 337.159 204.878 337.665 203.611C342.731 190.567 359.828 184.488 359.828 184.488C354.636 188.414 352.23 190.82 351.09 195.759C356.789 187.527 368.06 182.715 374.139 180.435C370.087 182.968 368.313 184.234 365.907 189.047C373.126 180.942 384.904 178.282 385.157 178.155C381.231 179.802 379.585 182.841 376.925 186.261C383.511 180.688 391.236 176.509 399.595 174.229C395.669 176.509 391.996 182.208 391.11 184.108C396.175 179.548 401.368 175.243 409.98 172.963C407.953 174.483 405.927 174.989 404.914 178.409C410.486 174.863 415.552 173.596 419.352 173.596C423.151 173.596 430.243 174.736 432.649 176.129C432.649 176.129 424.037 174.863 421.758 178.282C420.745 180.688 419.352 182.968 417.705 184.868C419.605 184.994 421.504 185.374 423.404 185.881C426.317 186.767 429.483 187.021 432.523 186.894C436.829 186.767 441.388 187.527 445.567 189.3Z" fill="#0C662F"/>
<path d="M363.755 223.875C359.069 224.888 354.256 224.635 349.824 222.989C346.657 221.722 343.998 219.189 342.731 216.023C345.771 214.503 349.444 214.25 352.61 215.39C357.042 217.163 360.842 220.076 363.755 223.875Z" fill="#FFCF07"/>
<path d="M372.873 216.783C368.694 217.923 364.135 217.67 360.082 216.403C357.043 215.39 354.637 213.11 353.37 210.324C356.156 208.804 359.449 208.551 362.489 209.438C366.541 210.704 370.087 213.364 372.873 216.783Z" fill="#FFCF07"/>
<path d="M384.271 211.211C379.965 212.478 375.279 212.478 370.973 211.211C367.934 210.198 365.401 207.918 364.008 205.006C366.794 203.359 370.213 202.979 373.38 203.866C377.559 205.259 381.358 207.792 384.271 211.211Z" fill="#FFCF07"/>
<path d="M396.936 206.523C392.883 207.79 388.577 207.79 384.525 206.65C381.612 205.764 379.206 203.737 377.812 200.951C380.472 199.431 383.512 198.925 386.551 199.811C390.604 201.078 394.15 203.357 396.936 206.523Z" fill="#FFCF07"/>
<path d="M411.754 201.586C407.828 202.979 403.649 203.233 399.596 202.346C396.683 201.586 394.15 199.686 392.63 197.154C395.163 195.507 398.203 194.874 401.116 195.507C405.168 196.52 408.841 198.547 411.754 201.586Z" fill="#FFCF07"/>
<path d="M425.557 190.313C422.138 193.353 417.959 195.379 413.399 196.139C410.107 196.646 406.814 195.632 404.154 193.733C406.054 190.947 408.967 189.173 412.133 188.54C416.819 187.907 421.378 188.54 425.557 190.313Z" fill="#FFCF07"/>
<path d="M348.431 194.111C349.318 198.671 348.811 203.483 347.165 207.916C345.771 211.082 343.239 213.488 340.072 214.755C338.679 211.715 338.553 208.169 339.819 204.876C341.592 200.57 344.632 196.898 348.431 194.111Z" fill="#FFCF07"/>
<path d="M362.362 189.301C362.362 194.113 360.969 198.799 358.436 202.978C356.536 205.891 353.497 207.791 350.078 208.424C349.191 205.005 349.824 201.459 351.597 198.546C354.257 194.493 358.056 191.327 362.362 189.301Z" fill="#FFCF07"/>
<path d="M375.406 185.121C375.026 189.807 373.379 194.24 370.593 197.912C368.44 200.572 365.401 202.218 362.108 202.598C361.601 199.305 362.361 195.759 364.388 193.1C367.174 189.427 370.973 186.641 375.406 185.121Z" fill="#FFCF07"/>
<path d="M388.83 182.336C388.197 186.895 386.297 191.074 383.258 194.621C380.978 197.027 377.939 198.547 374.519 198.673C374.139 195.38 375.153 192.088 377.305 189.555C380.345 186.135 384.398 183.602 388.83 182.336Z" fill="#FFCF07"/>
<path d="M402.761 180.688C401.875 184.867 399.722 188.539 396.682 191.579C394.402 193.732 391.49 194.745 388.45 194.618C388.323 191.579 389.59 188.54 391.743 186.387C394.782 183.474 398.582 181.574 402.761 180.688Z" fill="#FFCF07"/>
<path d="M418.592 177.27C416.946 181.069 414.286 184.362 410.867 186.768C408.334 188.414 405.168 188.921 402.255 188.288C402.761 185.248 404.408 182.589 406.814 180.816C410.36 178.663 414.413 177.396 418.592 177.27Z" fill="#FFCF07"/>
<path d="M357.675 238.187C355.522 240.719 352.229 242.113 348.937 241.986C328.8 241.986 304.864 214.504 280.928 214.504C262.945 214.504 253.193 230.588 253.193 245.785C253.193 280.866 307.65 325.952 359.955 325.952" fill="white"/>
<path d="M357.675 238.187C355.522 240.719 352.229 242.113 348.937 241.986C328.8 241.986 304.864 214.504 280.928 214.504C262.945 214.504 253.193 230.588 253.193 245.785C253.193 280.866 307.65 325.952 359.955 325.952" stroke="#0C662F" stroke-width="7.32" stroke-linecap="round" stroke-linejoin="round"/>
<path d="M206.082 68.7355C206.082 68.7355 206.842 67.5957 209.501 67.5957C211.148 67.5957 212.794 68.3556 213.807 69.622" stroke="#0C662F" stroke-width="4.88" stroke-linecap="round" stroke-linejoin="round"/>
<path d="M168.848 64.5557C169.987 63.6692 171.381 63.036 172.774 63.1626C174.42 63.2893 175.94 63.9225 177.206 64.9356" stroke="#0C662F" stroke-width="4.88" stroke-linecap="round" stroke-linejoin="round"/>
<path d="M157.196 74.814C160.616 71.1413 165.428 69.1149 170.494 68.9883C180.752 68.9883 186.071 72.4077 186.071 72.4077" stroke="#0C662F" stroke-width="4.88" stroke-linecap="round" stroke-linejoin="round"/>
<path d="M155.931 81.7787C155.044 80.6389 155.044 78.9925 155.931 77.7261C158.21 74.18 162.136 72.027 166.315 71.9004C173.787 71.9004 175.814 72.9135 179.613 81.0188C180.12 82.2853 179.993 83.805 178.98 84.8182L173.028 91.0238C172.268 91.7837 171.128 92.1636 170.115 92.037L164.289 91.2771C163.403 91.1505 162.643 90.6439 162.009 90.0107L155.931 81.7787Z" fill="#0C662F" stroke="#0C662F" stroke-width="4.64" stroke-linecap="round" stroke-linejoin="round"/>
<path d="M164.922 90.7695C165.049 95.0755 161.756 101.661 152.638 99.1281C154.031 104.067 162.136 115.845 171.001 115.845C183.666 115.845 196.077 106.474 197.343 101.281C194.431 103.307 188.352 104.067 183.159 104.067C172.901 104.067 166.189 93.1758 166.062 90.8962L164.922 90.7695Z" fill="#0C662F" stroke="#0C662F" stroke-width="4" stroke-linecap="round" stroke-linejoin="round"/>
<path d="M56.8942 253.003C56.8942 253.13 56.7675 253.257 56.6409 253.257C50.5619 253.383 45.7494 258.322 45.6227 264.275C45.6227 264.401 45.4961 264.528 45.3694 264.528C45.2428 264.528 45.1162 264.401 45.1162 264.275C44.8629 258.196 40.0503 253.383 34.098 253.257C33.9714 253.257 33.8447 253.13 33.8447 253.003C33.8447 252.877 33.9714 252.75 34.098 252.75C40.177 252.623 44.9895 247.684 45.1162 241.732C45.1162 241.605 45.2428 241.479 45.3694 241.479C45.4961 241.479 45.6227 241.605 45.6227 241.732C45.7494 247.811 50.6885 252.623 56.6409 252.75C56.7675 252.75 56.8942 252.877 56.8942 253.003Z" fill="#FAC305" stroke="#0C662F" stroke-width="1.13" stroke-miterlimit="5.63"/>
<path d="M447.974 239.958C448.101 240.085 448.101 240.338 447.974 240.465C442.402 246.291 442.402 255.536 447.974 261.361C448.101 261.488 448.101 261.741 447.974 261.868C447.848 261.995 447.594 261.995 447.468 261.868C441.642 256.296 432.397 256.296 426.571 261.868C426.445 261.995 426.191 261.995 426.065 261.868C425.938 261.741 425.938 261.488 426.065 261.361C431.637 255.536 431.637 246.291 426.065 240.465C425.938 240.338 425.938 240.085 426.065 239.958C426.191 239.832 426.445 239.832 426.571 239.958C432.397 245.531 441.642 245.531 447.468 239.958C447.468 239.832 447.721 239.832 447.974 239.958C447.848 239.958 447.974 239.958 447.974 239.958Z" fill="#FF9632"/>
<path d="M447.974 239.958C448.101 240.085 448.101 240.338 447.974 240.465C442.402 246.291 442.402 255.536 447.974 261.361C448.101 261.488 448.101 261.741 447.974 261.868C447.848 261.995 447.594 261.995 447.468 261.868C441.642 256.296 432.397 256.296 426.571 261.868C426.445 261.995 426.191 261.995 426.065 261.868C425.938 261.741 425.938 261.488 426.065 261.361C431.637 255.536 431.637 246.291 426.065 240.465C425.938 240.338 425.938 240.085 426.065 239.958C426.191 239.832 426.445 239.832 426.571 239.958C432.397 245.531 441.642 245.531 447.468 239.958C447.468 239.832 447.721 239.832 447.974 239.958ZM447.974 239.958C447.848 239.958 447.974 239.958 447.974 239.958Z" stroke="#0C662F" stroke-width="1.5" stroke-miterlimit="7.5"/>
</svg>
