<svg width="426" height="364" viewBox="0 0 426 364" fill="none" xmlns="http://www.w3.org/2000/svg">
<path fill-rule="evenodd" clip-rule="evenodd" d="M115.312 1.8428C137.867 1.71869 157.094 13.0303 157.094 49.5928C157.094 86.1553 79.4994 139.124 79.4994 139.124C79.4994 139.124 1.90625 86.1553 1.90625 49.5928C1.90625 13.0303 21.1329 1.86582 43.6875 1.8428C55.625 1.83062 72.0498 9.33113 79.5006 19.7491C86.9502 9.33113 103.241 1.90923 115.312 1.8428Z" fill="#E50101" stroke="#0C662F" stroke-width="3" stroke-linejoin="round"/>
<path d="M177.519 295.376C147.467 281.352 115.036 256.308 75.3415 216.614L74.9658 216.239L98.7572 183.557L99.2581 183.807C113.408 191.571 127.933 198.583 142.834 204.718C167.126 214.736 187.537 220.245 203.439 220.997L204.191 221.122L178.145 295.627L177.519 295.376Z" fill="#0C662F"/>
<path d="M202.436 224.253L178.645 292.372C151.598 279.725 119.793 256.559 77.3438 214.11L82.4777 206.848L97.2534 186.562C111.653 194.451 126.429 201.589 141.455 207.85C165.998 217.867 186.409 223.377 202.436 224.253Z" fill="white"/>
<path d="M70.7073 145.491L74.2134 151.501L57.9351 162.645L53.6777 155.132C51.0481 150.374 52.6759 144.489 57.309 141.734C62.0673 139.104 67.9525 140.732 70.7073 145.491Z" fill="white"/>
<path d="M100.008 157.513L87.1107 166.654L86.8602 166.779C86.2342 167.155 86.1089 168.031 86.4846 168.532C86.6098 168.783 86.9855 169.033 87.3611 169.033C87.7368 169.158 88.1124 169.033 88.3629 168.908L88.6133 168.658C90.2411 167.531 92.2446 167.155 94.1229 167.405C96.0012 167.781 97.629 168.908 98.756 170.411C98.8812 170.536 99.0064 170.661 99.0064 170.786L99.6325 171.788C101.636 175.294 100.384 179.677 97.0029 181.68C96.3768 181.931 96.1264 182.682 96.3768 183.183C96.502 183.559 96.7525 183.809 97.0029 183.934C97.2533 184.059 97.629 184.185 98.0046 184.059C98.1299 183.934 98.2551 183.934 98.2551 183.934C101.761 181.931 106.269 183.183 108.273 186.689L109.525 188.692C110.401 190.446 110.652 192.324 110.151 194.202C109.65 196.08 108.398 197.708 106.645 198.585L81.9767 212.86C74.2132 217.242 64.321 214.613 59.9384 206.849L51.9244 192.699C46.9157 183.934 49.1696 172.79 57.1836 166.529C57.434 166.278 57.8097 166.153 58.0601 165.903L58.1853 165.778L59.3123 165.026L75.4654 153.757L76.5924 153.005L77.7193 152.254L89.8655 143.864C90.2411 143.614 90.4916 143.364 90.8672 143.238C94.8742 140.859 100.133 142.237 102.512 146.369C104.641 150.125 103.514 155.009 100.008 157.513Z" fill="white"/>
<path d="M74.0888 218.242C67.0766 218.242 60.6905 214.486 57.1844 208.475L49.1704 194.326C43.2852 184.183 45.7895 171.286 55.0557 164.023L50.9235 156.76C47.4174 150.499 49.5461 142.486 55.807 138.979C62.0679 135.473 70.0818 137.602 73.5879 143.863L76.5932 149.122L87.988 141.233C88.2384 141.108 88.3637 140.983 88.6141 140.732C93.9985 137.101 101.261 138.353 104.892 143.738C108.524 149.122 107.272 156.385 101.887 160.016L95.6263 164.524C98.2559 165.15 100.51 166.903 101.887 169.157L102.012 169.282L102.513 170.284C104.266 173.289 104.392 176.92 102.889 179.926C106.27 180.301 109.275 182.18 111.028 185.185L112.28 187.439C115.16 192.447 113.282 198.834 108.273 201.714L105.393 203.467C105.143 203.592 104.767 203.717 104.392 203.717C103.64 203.717 103.014 203.341 102.764 202.715C102.263 201.839 102.513 200.587 103.39 200.086L106.395 198.458C109.651 196.705 110.652 192.573 108.899 189.442L107.647 187.314C105.769 184.183 101.762 183.056 98.5063 184.809L98.1307 184.934C98.0054 184.934 97.755 185.06 97.5046 185.06C96.628 185.06 95.8767 184.559 95.6263 183.682C95.3759 182.806 95.7515 181.804 96.628 181.428C99.7585 179.55 100.885 175.543 99.1324 172.287L98.5063 171.411L98.2559 171.035C97.0037 169.282 94.875 168.28 92.7463 168.28C91.3689 168.28 89.9915 168.781 88.8645 169.533L88.6141 169.783V169.908C88.2384 170.159 87.8628 170.159 87.6124 170.159C86.9863 170.159 86.3602 169.783 85.9845 169.282C85.4836 168.406 85.7341 167.153 86.6106 166.653L86.861 166.527L99.6333 157.386C103.265 155.007 104.392 150.249 102.012 146.493C99.6333 142.736 94.875 141.734 91.1185 144.113C90.7428 144.239 90.4924 144.489 90.1167 144.739C90.1167 144.739 89.9915 144.739 89.9915 144.865L77.8453 153.254L76.7184 154.006L75.5914 154.757L59.4383 165.901L58.3113 166.653L58.1861 166.778L57.4348 167.404C49.6713 173.414 47.4174 184.183 52.3009 192.823L60.44 206.597C62.4435 210.228 65.8244 212.858 69.8314 213.86C73.8384 214.987 78.0958 214.486 81.6019 212.357L82.7288 211.731C83.1045 211.606 83.3549 211.481 83.7306 211.481C83.8558 211.481 83.981 211.606 84.2315 211.606C84.9828 211.856 85.6089 212.482 85.7341 213.359C85.8593 214.11 85.3584 214.862 84.7323 215.237L83.6054 215.863C80.7254 217.491 77.3445 218.368 74.0888 218.242ZM62.1931 141.108C57.1844 141.108 53.0522 145.24 53.0522 150.249C53.0522 151.877 53.4278 153.38 54.1792 154.757L58.1861 161.769L73.3375 151.251L70.207 145.741C68.454 142.861 65.4488 141.108 62.1931 141.108Z" fill="#0C662F"/>
<path d="M416.809 313.41C416.809 348.471 400.656 359.615 392.392 359.615H128.057C128.057 293.25 172.759 243.914 172.759 195.705C172.759 168.908 164.37 160.393 164.37 135.35C164.37 123.705 168.502 113.437 175.765 103.795C174.888 100.79 174.387 97.6592 174.262 94.5288C174.262 87.8922 178.019 81.3809 185.907 81.3809C189.914 81.3809 193.921 82.3826 197.553 84.2609C205.692 80.1287 214.707 78 223.974 78C240.502 78 253.024 80.7548 263.918 87.3913C266.923 83.2592 270.555 81.2557 277.066 81.2557C286.207 81.2557 289.838 90.0209 289.838 95.4053C289.838 99.9131 288.586 104.421 286.207 108.178C290.339 112.811 294.471 117.318 298.979 123.078C322.52 153.381 342.555 185.187 360.336 208.978C378.117 232.769 416.809 278.224 416.809 313.41Z" fill="white" stroke="#0C662F" stroke-width="7.32" stroke-linecap="round" stroke-linejoin="round"/>
<path d="M180.899 100.914C180.899 100.914 176.767 93.7769 179.772 90.7717C179.772 90.7717 182.276 87.516 189.289 92.7752C186.158 95.1543 183.278 97.7839 180.899 100.914Z" fill="#0C662F"/>
<path d="M267.55 92.7762C270.18 95.1553 272.684 97.7849 274.938 100.665C278.069 97.6597 283.829 91.2735 279.446 87.517C278.319 86.6405 275.189 84.5118 267.55 92.7762Z" fill="#0C662F"/>
<path d="M176.643 87.391C179.523 82.3822 188.789 85.3875 193.672 90.0205" stroke="#0C662F" stroke-width="4.88" stroke-linecap="round" stroke-linejoin="round"/>
<path d="M282.952 83.5078C289.087 86.7635 284.705 97.7827 278.945 103.793" stroke="#0C662F" stroke-width="4.88" stroke-linecap="round" stroke-linejoin="round"/>
<path d="M227.355 105.424C227.355 105.424 228.107 104.297 230.736 104.297C232.364 104.297 233.992 105.048 234.994 106.3" stroke="#0C662F" stroke-width="4.88" stroke-linecap="round" stroke-linejoin="round"/>
<path d="M190.541 101.29C191.668 100.413 193.045 99.7872 194.423 99.9124C196.051 100.038 197.553 100.664 198.805 101.665" stroke="#0C662F" stroke-width="4.88" stroke-linecap="round" stroke-linejoin="round"/>
<path d="M179.021 111.434C182.401 107.803 187.16 105.799 192.168 105.674C202.311 105.674 207.57 109.055 207.57 109.055" stroke="#0C662F" stroke-width="4.88" stroke-linecap="round" stroke-linejoin="round"/>
<path d="M177.769 118.318C176.892 117.191 176.892 115.563 177.769 114.311C180.023 110.805 183.904 108.676 188.037 108.551C195.424 108.551 197.428 109.553 201.184 117.566C201.685 118.819 201.56 120.321 200.558 121.323L194.673 127.459C193.922 128.21 192.795 128.586 191.793 128.46L186.033 127.709C185.157 127.584 184.405 127.083 183.779 126.457L177.769 118.318Z" fill="#0C662F" stroke="#0C662F" stroke-width="4.64" stroke-linecap="round" stroke-linejoin="round"/>
<path d="M186.66 127.209C186.785 131.466 183.529 137.978 174.514 135.473C175.891 140.357 183.905 152.002 192.67 152.002C205.192 152.002 217.463 142.736 218.716 137.602C215.836 139.606 209.825 140.357 204.691 140.357C194.549 140.357 187.912 129.588 187.787 127.334L186.66 127.209Z" fill="#0C662F" stroke="#0C662F" stroke-width="4" stroke-linecap="round" stroke-linejoin="round"/>
<path fill-rule="evenodd" clip-rule="evenodd" d="M382.354 174.736C405.66 182.926 421.317 201.682 407.833 239.389C394.348 277.096 294.79 303.106 294.79 303.106C294.79 303.106 234.304 219.863 247.788 182.156C261.272 144.449 285.218 140.026 308.487 148.32C320.803 152.71 334.975 166.503 338.817 179.995C350.342 171.998 369.88 170.352 382.354 174.736Z" fill="#E50101" stroke="#0C662F" stroke-width="3" stroke-linejoin="round"/>
<path d="M377.241 272.965C375.112 275.469 371.856 276.846 368.601 276.721C348.691 276.721 325.025 249.549 301.359 249.549C283.578 249.549 273.936 265.452 273.936 280.478C273.936 315.163 327.78 359.741 379.495 359.741" fill="white"/>
<path d="M377.241 272.965C375.112 275.469 371.856 276.846 368.601 276.721C348.691 276.721 325.025 249.549 301.359 249.549C283.578 249.549 273.936 265.452 273.936 280.478C273.936 315.163 327.78 359.741 379.495 359.741" stroke="#0C662F" stroke-width="7.32" stroke-linecap="round" stroke-linejoin="round"/>
</svg>
