<svg width="194" height="194" viewBox="0 0 194 194" fill="none" xmlns="http://www.w3.org/2000/svg">
<g clip-path="url(#clip0_1170_38478)">
<circle cx="96.5" cy="97.5" r="79" stroke="#FFCF07" stroke-width="33"/>
<circle cx="96.5" cy="97.5" r="64" stroke="black" stroke-width="3"/>
<path d="M96.5 70.8086L96.5 123.66" stroke="black" stroke-width="2.94396" stroke-linecap="round" stroke-linejoin="round"/>
<path d="M106.709 113.383C101.892 115.739 99.7703 118.21 96.5003 123.659C93.7579 118.74 91.8265 116.269 86.292 113.383" stroke="black" stroke-width="2.94396" stroke-linecap="round" stroke-linejoin="round"/>
<circle cx="96.5" cy="96.5" r="95.5" stroke="black" stroke-width="2.94396"/>
<path d="M59.1795 162.419C60.3811 163.143 61.1939 164.056 61.6179 165.157C62.0368 166.255 61.9659 167.27 61.405 168.201L59.9128 167.302C60.168 166.878 60.1197 166.362 59.7678 165.754C59.408 165.148 58.8341 164.607 58.0461 164.133C57.332 163.702 56.6545 163.462 56.0137 163.411C55.3679 163.358 54.9292 163.523 54.6978 163.907C54.5523 164.149 54.5183 164.417 54.5957 164.712C54.6681 165.004 54.846 165.316 55.1293 165.648C55.4098 165.984 55.67 166.265 55.9102 166.491C56.1474 166.721 56.4595 167 56.8464 167.327C57.8053 168.153 58.4491 169.018 58.7778 169.92C59.1034 170.828 59.014 171.701 58.5095 172.538C57.9576 173.454 57.1376 173.974 56.0497 174.097C54.9569 174.217 53.8539 173.942 52.7409 173.271C51.6033 172.586 50.8362 171.714 50.4398 170.656C50.0385 169.595 50.102 168.627 50.6302 167.75L52.1225 168.649C51.891 169.033 51.9404 169.503 52.2707 170.058C52.5961 170.609 53.1207 171.103 53.8447 171.54C54.5194 171.946 55.154 172.174 55.7485 172.224C56.3381 172.27 56.7457 172.106 56.9712 171.732C57.3897 171.038 56.73 169.965 54.9923 168.515C52.7496 166.6 52.1253 164.818 53.1194 163.168C53.6981 162.207 54.561 161.667 55.708 161.546C56.8502 161.422 58.0073 161.713 59.1795 162.419Z" fill="black"/>
<path d="M44.1125 149.79C45.4045 151.076 46.0586 152.579 46.075 154.299C46.0913 156.018 45.4688 157.512 44.2074 158.78C42.9419 160.051 41.4493 160.683 39.7294 160.675C38.0096 160.667 36.5036 160.02 35.2117 158.734C34.1194 157.647 33.4821 156.388 33.2997 154.958C33.1174 153.527 33.4069 152.205 34.1684 150.991L35.4461 152.263C35.1471 153.044 35.1146 153.88 35.3485 154.77C35.5783 155.655 36.0518 156.455 36.7692 157.169C37.7106 158.106 38.773 158.612 39.9564 158.686C41.1316 158.761 42.1349 158.38 42.9664 157.544C43.7938 156.713 44.1695 155.708 44.0934 154.529C44.0093 153.35 43.4965 152.292 42.555 151.355C41.8377 150.641 41.0356 150.172 40.1487 149.946C39.2577 149.717 38.4223 149.753 37.6424 150.056L36.3647 148.784C37.5785 148.013 38.9012 147.715 40.3328 147.89C41.7603 148.07 43.0202 148.703 44.1125 149.79Z" fill="black"/>
<path d="M32.3287 134.153L30.4758 138.853L32.1718 141.464L35.622 139.223L36.5333 140.626L26.3129 147.264L23.311 142.642C22.6689 141.654 22.4565 140.62 22.6735 139.539C22.8906 138.459 23.4838 137.604 24.453 136.975C25.2342 136.467 26.0622 136.248 26.9369 136.318C27.8037 136.385 28.5741 136.711 29.2481 137.295L31.2059 132.424L32.3287 134.153ZM27.2098 144.687L30.3635 142.638L28.3058 139.47C27.908 138.858 27.4408 138.455 26.904 138.262C26.3625 138.072 25.8602 138.128 25.3973 138.428C24.9247 138.735 24.6675 139.173 24.6256 139.742C24.5789 140.314 24.7544 140.906 25.1521 141.519L27.2098 144.687Z" fill="black"/>
<path d="M24.3912 118.7C25.9488 119.429 27.0451 120.651 27.6799 122.366C28.3128 124.075 28.2757 125.714 27.5686 127.281C26.8615 128.849 25.6694 129.944 23.9925 130.565C22.3101 131.187 20.6901 131.134 19.1325 130.405C17.5749 129.676 16.4797 128.456 15.8468 126.747C15.2119 125.032 15.248 123.391 15.9551 121.823C16.6623 120.255 17.857 119.16 19.5393 118.537C21.2163 117.916 22.8336 117.971 24.3912 118.7ZM25.6734 126.659C26.0919 125.554 26.0705 124.378 25.6093 123.132C25.1461 121.881 24.3969 120.976 23.3615 120.415C22.3187 119.85 21.2473 119.772 20.1473 120.179C19.0419 120.588 18.2799 121.346 17.8614 122.451C17.4356 123.553 17.4542 124.729 17.9174 125.98C18.3786 127.226 19.1305 128.131 20.1733 128.695C21.2087 129.256 22.2791 129.332 23.3845 128.923C24.4845 128.515 25.2475 127.761 25.6734 126.659Z" fill="black"/>
<path d="M21.2159 108.779L20.2795 102.684L22.4107 102.357L23.6012 110.106L11.5556 111.956L11.3015 110.303L21.2159 108.779Z" fill="black"/>
<path d="M20.8486 97.0223L20.8584 90.8555L23.0146 90.8589L23.0021 98.6989L10.8152 98.6795L10.8179 97.0062L20.8486 97.0223Z" fill="black"/>
<path d="M16.7042 65.1427C17.3583 63.4908 18.4423 62.3307 19.9562 61.6624C21.4647 60.992 23.0316 60.9786 24.6568 61.6221C26.2766 62.2636 27.4095 63.3461 28.0554 64.8697C28.6981 66.3858 28.6913 67.9724 28.035 69.6297L26.2949 74.0241L14.964 69.5371L16.7042 65.1427ZM26.0176 68.8679C26.4897 67.6757 26.5333 66.5427 26.1484 65.4688C25.7635 64.395 25.0525 63.6527 24.0153 63.242C22.9729 62.8292 21.9438 62.8824 20.928 63.4016C19.9144 63.9155 19.1704 64.7712 18.6962 65.9687L17.5848 68.7753L24.9062 71.6746L26.0176 68.8679Z" fill="black"/>
<path d="M39.3262 48.588C39.5849 50.2884 39.1775 51.8787 38.1042 53.359C37.0343 54.8346 35.6511 55.7138 33.9546 55.9965C32.2581 56.2793 30.686 55.8958 29.2383 54.8461C27.7859 53.793 26.9304 52.4163 26.6718 50.716C26.4131 49.0157 26.8188 47.4277 27.8887 45.9521C28.962 44.4718 30.3469 43.5902 32.0434 43.3075C33.7399 43.0248 35.3143 43.41 36.7667 44.463C38.2144 45.5127 39.0676 46.8877 39.3262 48.588ZM33.4198 54.0747C34.5714 53.8088 35.537 53.1382 36.3167 52.0629C37.0997 50.9829 37.4369 49.8567 37.3283 48.6841C37.2183 47.5036 36.6886 46.569 35.7389 45.8805C34.7847 45.1886 33.7317 44.9755 32.5801 45.2414C31.4273 45.4993 30.4593 46.1682 29.6763 47.2481C28.8966 48.3235 28.5617 49.4514 28.6716 50.632C28.7803 51.8045 29.3117 52.7367 30.266 53.4286C31.2157 54.1172 32.2669 54.3325 33.4198 54.0747Z" fill="black"/>
<path d="M48.9648 41.6035L38.2529 34.5618L39.6614 33.4369L47.5289 38.4786L47.8591 38.2149L44.6149 29.481L45.8415 28.5015L53.655 33.5862L53.9853 33.3225L50.8152 24.5294L52.2912 23.3507L56.7893 35.3548L55.1988 36.625L47.8767 31.7548L47.4184 32.1208L50.5485 40.3387L48.9648 41.6035Z" fill="black"/>
<path d="M63.909 31.1067L59.1146 19.9024L60.9304 19.1254L70.1845 24.5938L70.4778 24.4682L67.0678 16.4992L68.614 15.8375L73.4085 27.0418L71.5688 27.829L62.3114 22.3527L62.0339 22.4714L65.4473 30.4484L63.909 31.1067Z" fill="black"/>
<path d="M94.0609 19.2051V17.1178H99.1495V19.2051H94.0609Z" fill="black"/>
<path d="M94.0609 175.205V173.118H99.1495V175.205H94.0609Z" fill="black"/>
<path d="M127.278 28.9888C125.988 28.4369 125.058 27.6447 124.486 26.6121C123.92 25.5819 123.851 24.5672 124.279 23.5681L125.88 24.2535C125.686 24.7081 125.805 25.2124 126.237 25.7663C126.677 26.3172 127.319 26.7736 128.165 27.1356C128.932 27.4636 129.636 27.6085 130.278 27.5704C130.925 27.5345 131.336 27.3105 131.513 26.8981C131.624 26.6391 131.62 26.3688 131.503 26.0873C131.391 25.808 131.172 25.5235 130.846 25.2337C130.522 24.9387 130.225 24.6961 129.956 24.506C129.69 24.3106 129.342 24.0775 128.914 23.8067C127.851 23.1203 127.094 22.3525 126.644 21.5033C126.197 20.6489 126.166 19.7724 126.55 18.8737C126.971 17.8905 127.712 17.263 128.772 16.9914C129.838 16.722 130.968 16.843 132.163 17.3542C133.384 17.8767 134.264 18.6346 134.802 19.6279C135.345 20.6234 135.416 21.5917 135.013 22.5326L133.411 21.8472C133.588 21.4349 133.474 20.9767 133.071 20.4726C132.673 19.9707 132.085 19.5535 131.308 19.221C130.584 18.9111 129.924 18.7726 129.328 18.8054C128.738 18.8404 128.357 19.0588 128.185 19.4606C127.866 20.206 128.667 21.1772 130.587 22.3743C133.072 23.9629 133.936 25.6427 133.178 27.4136C132.737 28.4444 131.956 29.0987 130.837 29.3764C129.723 29.6564 128.536 29.5272 127.278 28.9888Z" fill="black"/>
<path d="M144.322 39.0244C142.866 37.9286 142.011 36.5301 141.758 34.8289C141.505 33.1277 141.917 31.5626 142.992 30.1336C144.07 28.7001 145.462 27.869 147.166 27.6404C148.871 27.4118 150.452 27.8455 151.908 28.9413C153.14 29.8677 153.944 31.027 154.321 32.419C154.699 33.8111 154.594 35.1604 154.006 36.4671L152.566 35.3834C152.755 34.5683 152.672 33.7362 152.318 32.8869C151.968 32.0412 151.389 31.3141 150.581 30.7057C149.519 29.9071 148.398 29.5524 147.215 29.6415C146.041 29.7294 145.099 30.2443 144.391 31.1862C143.686 32.1236 143.452 33.1709 143.689 34.3281C143.935 35.4842 144.588 36.4615 145.65 37.2601C146.458 37.8685 147.317 38.2234 148.227 38.3248C149.141 38.4297 149.963 38.2785 150.694 37.8714L152.135 38.9551C151.038 39.8861 149.769 40.3632 148.327 40.3863C146.888 40.4048 145.553 39.9509 144.322 39.0244Z" fill="black"/>
<path d="M158.077 52.9702L159.266 48.0599L157.227 45.7068L154.118 48.4009L153.022 47.1364L162.232 39.1557L165.841 43.3209C166.613 44.2117 166.966 45.207 166.9 46.3069C166.833 47.4068 166.363 48.3352 165.49 49.092C164.786 49.702 163.996 50.0328 163.12 50.0842C162.252 50.1363 161.444 49.9195 160.696 49.434L159.427 54.5281L158.077 52.9702ZM161.698 41.8322L158.857 44.2948L161.33 47.1498C161.809 47.7017 162.327 48.0363 162.885 48.1537C163.448 48.2673 163.937 48.1433 164.355 47.7819C164.78 47.4129 164.975 46.9438 164.938 46.3745C164.906 45.8016 164.651 45.2391 164.172 44.6872L161.698 41.8322Z" fill="black"/>
<path d="M167.949 66.5744C166.306 66.0663 165.052 65.0067 164.188 63.3956C163.326 61.7896 163.137 60.1615 163.622 58.5113C164.107 56.8612 165.137 55.6133 166.713 54.7677C168.293 53.9193 169.905 53.7492 171.548 54.2573C173.191 54.7654 174.444 55.8225 175.306 57.4285C176.171 59.0396 176.36 60.6702 175.876 62.3204C175.391 63.9705 174.358 65.2198 172.778 66.0682C171.202 66.9138 169.593 67.0826 167.949 66.5744ZM165.585 58.8674C165.322 60.0198 165.505 61.1811 166.133 62.3515C166.764 63.5269 167.631 64.3211 168.734 64.7343C169.844 65.1498 170.916 65.0801 171.95 64.5255C172.988 63.968 173.639 63.1131 173.901 61.9608C174.171 60.8108 173.991 59.6481 173.36 58.4727C172.732 57.3023 171.863 56.5094 170.752 56.0939C169.65 55.6808 168.579 55.7529 167.541 56.3104C166.507 56.8651 165.855 57.7174 165.585 58.8674Z" fill="black"/>
<path d="M171.637 76.1262L173.403 82.0347L171.337 82.6522L169.092 75.1404L180.769 71.6508L181.248 73.254L171.637 76.1262Z" fill="black"/>
<path d="M174.702 87.9916L175.54 94.1012L173.404 94.3943L172.338 86.6271L184.412 84.9702L184.64 86.6279L174.702 87.9916Z" fill="black"/>
<path d="M181.89 118.743C181.469 120.469 180.555 121.767 179.148 122.637C177.746 123.509 176.195 123.738 174.497 123.324C172.805 122.911 171.534 121.995 170.684 120.574C169.839 119.161 169.628 117.589 170.05 115.857L171.169 111.265L183.009 114.151L181.89 118.743ZM172.153 116.334C171.849 117.58 171.962 118.708 172.491 119.719C173.02 120.729 173.826 121.367 174.91 121.631C175.999 121.896 177.011 121.702 177.946 121.048C178.879 120.4 179.498 119.45 179.803 118.199L180.518 115.266L172.868 113.401L172.153 116.334Z" fill="black"/>
<path d="M162.914 139.066C162.424 137.418 162.609 135.786 163.468 134.172C164.325 132.564 165.574 131.503 167.216 130.989C168.857 130.476 170.467 130.639 172.045 131.48C173.629 132.323 174.666 133.569 175.156 135.218C175.646 136.866 175.462 138.495 174.605 140.104C173.746 141.718 172.495 142.781 170.854 143.295C169.212 143.808 167.6 143.643 166.017 142.8C164.438 141.959 163.404 140.715 162.914 139.066ZM168.01 132.819C166.906 133.241 166.042 134.038 165.417 135.21C164.79 136.388 164.611 137.55 164.88 138.696C165.151 139.85 165.804 140.703 166.84 141.255C167.88 141.809 168.952 141.875 170.056 141.453C171.163 141.039 172.03 140.243 172.657 139.066C173.281 137.894 173.458 136.73 173.186 135.576C172.917 134.43 172.263 133.58 171.222 133.025C170.187 132.474 169.116 132.405 168.01 132.819Z" fill="black"/>
<path d="M154.71 147.418L166.288 152.919L165.048 154.227L156.562 150.316L156.271 150.622L160.685 158.827L159.605 159.966L151.167 156.004L150.876 156.311L155.225 164.584L153.925 165.955L147.819 154.683L149.22 153.207L157.142 157.023L157.545 156.598L153.315 148.889L154.71 147.418Z" fill="black"/>
<path d="M140.088 159.125L146.378 169.563L144.687 170.582L134.768 166.439L134.495 166.603L138.969 174.028L137.528 174.896L131.238 164.457L132.952 163.425L142.875 167.576L143.133 167.42L138.655 159.988L140.088 159.125Z" fill="black"/>
</g>
<defs>
<clipPath id="clip0_1170_38478">
<rect width="194" height="194" fill="white"/>
</clipPath>
</defs>
</svg>
