<svg width="153" height="115" viewBox="0 0 153 115" fill="none" xmlns="http://www.w3.org/2000/svg">
<g style="mix-blend-mode:overlay">
<path d="M5 95C13.2077 100.076 21.1421 106.067 30 110" stroke="#A0D468" stroke-width="10" stroke-miterlimit="1.5" stroke-linecap="round" stroke-linejoin="round"/>
<path d="M23 54C33.5638 66.1678 43.5554 78.7566 54 91" stroke="#A0D468" stroke-width="10" stroke-miterlimit="1.5" stroke-linecap="round" stroke-linejoin="round"/>
<path d="M49 16C56.7843 34.6748 65.7005 53.781 72 73" stroke="#A0D468" stroke-width="10" stroke-miterlimit="1.5" stroke-linecap="round" stroke-linejoin="round"/>
<path d="M41 45C39.3388 41.9964 37.6437 39.015 36 36" stroke="#A0D468" stroke-width="10" stroke-miterlimit="1.5" stroke-linecap="round" stroke-linejoin="round"/>
<path d="M91.7093 5C89.9878 25.9671 91.6528 47.137 94 68" stroke="#A0D468" stroke-width="10" stroke-miterlimit="1.5" stroke-linecap="round" stroke-linejoin="round"/>
<path d="M113 91C124.136 81.0238 135.308 71.9856 148 64" stroke="#A0D468" stroke-width="10" stroke-miterlimit="1.5" stroke-linecap="round" stroke-linejoin="round"/>
<path d="M111 69C112.369 67.3579 113.744 65.7412 115 64" stroke="#A0D468" stroke-width="10" stroke-miterlimit="1.5" stroke-linecap="round" stroke-linejoin="round"/>
<path d="M123 50C126.883 45.4998 130.138 40.4951 134 36" stroke="#A0D468" stroke-width="10" stroke-miterlimit="1.5" stroke-linecap="round" stroke-linejoin="round"/>
</g>
</svg>
