<svg width="32" height="32" viewBox="0 0 32 32" fill="none" xmlns="http://www.w3.org/2000/svg">
<path d="M24 18.667H25.0667C25.627 18.667 26.1818 18.5567 26.6995 18.3423C27.2171 18.1279 27.6875 17.8135 28.0837 17.4173C28.4799 17.0211 28.7942 16.5509 29.0086 16.0332C29.223 15.5155 29.3333 14.9607 29.3333 14.4004V6.93376C29.3333 6.37345 29.223 5.8186 29.0086 5.30094C28.7942 4.78329 28.4799 4.31286 28.0837 3.91667C27.6875 3.52047 27.2171 3.20628 26.6995 2.99186C26.1818 2.77744 25.627 2.66699 25.0667 2.66699H12.2667C11.7064 2.66699 11.1516 2.77744 10.634 2.99186C10.1163 3.20628 9.64595 3.52047 9.24976 3.91667C8.85356 4.31286 8.53921 4.78329 8.32479 5.30094C8.11037 5.8186 8 6.37345 8 6.93376V10.1338" stroke="black" stroke-width="1.5" stroke-linecap="round" stroke-linejoin="round"/>
<path d="M9.06681 26.1338L11.5068 28.5871C12.0013 29.0521 12.6546 29.3109 13.3334 29.3109C14.0122 29.3109 14.6656 29.0521 15.1602 28.5871L17.6001 26.1338H19.7335C20.8651 26.1338 21.9503 25.6843 22.7504 24.8841C23.5506 24.084 24.0001 22.9986 24.0001 21.867V14.4004C24.0001 13.2688 23.5506 12.1836 22.7504 11.3835C21.9503 10.5833 20.8651 10.1338 19.7335 10.1338H6.93343C5.80184 10.1338 4.71666 10.5833 3.9165 11.3835C3.11635 12.1836 2.66675 13.2688 2.66675 14.4004V21.867C2.66675 22.9986 3.11635 24.084 3.9165 24.8841C4.71666 25.6843 5.80184 26.1338 6.93343 26.1338H9.06681Z" stroke="black" stroke-width="1.5" stroke-linecap="round" stroke-linejoin="round"/>
</svg>
