<svg width="32" height="32" viewBox="0 0 32 32" fill="none" xmlns="http://www.w3.org/2000/svg">
<path d="M10.9393 25.6057C10.3536 26.1915 10.3536 27.1412 10.9393 27.727C11.5251 28.3128 12.4749 28.3128 13.0607 27.727L10.9393 25.6057ZM22.6667 15.9997L23.7273 17.0603C24.0086 16.779 24.1667 16.3975 24.1667 15.9997C24.1667 15.6019 24.0086 15.2203 23.7273 14.939L22.6667 15.9997ZM13.0607 4.27235C12.4749 3.68656 11.5251 3.68656 10.9393 4.27235C10.3536 4.85813 10.3536 5.80788 10.9393 6.39367L13.0607 4.27235ZM13.0607 27.727L23.7273 17.0603L21.606 14.939L10.9393 25.6057L13.0607 27.727ZM23.7273 14.939L13.0607 4.27235L10.9393 6.39367L21.606 17.0603L23.7273 14.939Z" fill="black"/>
</svg>
