<svg width="32" height="33" viewBox="0 0 32 33" fill="none" xmlns="http://www.w3.org/2000/svg">
<path fill-rule="evenodd" clip-rule="evenodd" d="M18.7522 5.38652C19.3243 5.9634 19.6265 6.68498 19.63 7.33587C19.7996 7.95926 19.6557 8.97417 19.4235 10.0112L19.388 10.1668L19.3514 10.3226C19.3452 10.3485 19.339 10.3744 19.3327 10.4004L19.2947 10.5557L19.2559 10.7103L19.2166 10.864L19.1569 11.0923L19.077 11.3909L19.0175 11.6093L18.7953 12.4154L18.7466 12.5954L18.7017 12.765L18.6742 12.8717C18.6698 12.8891 18.6655 12.9062 18.6613 12.9231L18.6371 13.0217C18.6294 13.0537 18.6222 13.0846 18.6153 13.1146L18.5961 13.2014C18.5603 13.3688 18.5409 13.4983 18.544 13.5799C19.4416 13.352 20.1909 13.2114 20.8197 13.1289L20.9627 13.1109L21.1015 13.0948C21.2837 13.0747 21.455 13.0597 21.616 13.0489L21.7349 13.0416C21.7544 13.0405 21.7738 13.0395 21.793 13.0385L21.9062 13.0334C21.9248 13.0327 21.9432 13.032 21.9615 13.0314L22.0694 13.0284C22.1047 13.0276 22.1395 13.027 22.1737 13.0267L22.2746 13.0261L22.3721 13.0266C22.404 13.027 22.4354 13.0275 22.4663 13.0282L22.5573 13.0307C22.5722 13.0312 22.587 13.0318 22.6016 13.0323L22.6879 13.0361C22.702 13.0368 22.716 13.0376 22.7299 13.0383L22.8117 13.0432L22.8906 13.0488L22.9666 13.0549L23.0754 13.0649L23.1447 13.072L23.2437 13.0832L23.3672 13.0987L23.4813 13.1141L23.7076 13.1455L23.7744 13.154L23.8374 13.161L23.8774 13.1648L23.8968 13.1664C25.4035 13.2817 26.6349 14.4944 26.6349 16.0191C26.6349 16.4199 26.5502 16.8008 26.3979 17.1445C26.7746 17.6173 27 18.2181 27 18.8719C27 19.6107 26.7121 20.2818 26.2433 20.7773C26.3783 21.1281 26.4524 21.5096 26.4524 21.9087C26.4524 22.8791 26.0142 23.7463 25.3265 24.3202C25.3366 24.3922 25.3417 24.4651 25.3455 24.5387L25.3527 24.6867C25.354 24.7116 25.3554 24.7364 25.3571 24.7614C25.7579 30.6066 12.4857 28.0713 10.3666 27.204C10.256 27.1587 10.1505 27.0509 10.0515 26.8907C9.77776 27.0644 9.46365 27.1815 9.12424 27.2249L5.55075 27.6816C5.02628 27.7486 4.54015 27.3941 4.43911 26.8709C4.14637 25.3554 4 23.7597 4 22.0837C4 20.3552 4.1557 18.6267 4.46709 16.8982C4.55773 16.3957 5.00544 16.04 5.5112 16.0687L9.39633 16.2894C9.61064 16.3015 9.81459 16.3506 10.0023 16.4303C10.2382 15.891 10.524 15.3962 10.8445 15.0322L11.3536 14.4539L11.4563 14.3364L11.604 14.1663L11.6985 14.0564L11.79 13.949L11.8787 13.8436L11.9648 13.74L12.0484 13.6378C12.0622 13.6209 12.0758 13.604 12.0894 13.5871L12.1697 13.4864C12.1829 13.4696 12.1961 13.4529 12.2091 13.4362L12.2865 13.3362C12.7709 12.703 13.1509 12.072 13.6285 11.0525L13.7048 10.8882C13.7562 10.7765 13.8089 10.6602 13.8629 10.5389L13.9451 10.3532L14.0297 10.1597L14.1167 9.95805L14.2064 9.74786L14.299 9.52883L14.3947 9.3006L14.4935 9.06283L14.5957 8.81519L14.7558 8.42446L14.8673 8.15064L15.0421 7.71903L15.164 7.41689C15.1829 7.36996 15.1878 7.30587 15.1847 7.22789L15.1827 7.19092L15.1797 7.15205L15.1736 7.09033L15.1601 6.97895L15.1377 6.80702L15.1251 6.70142L15.1164 6.61916L15.1112 6.56299C15.1104 6.55354 15.1096 6.54406 15.1089 6.53453L15.1048 6.47692C15.1042 6.46724 15.1036 6.45753 15.103 6.44778L15.1003 6.38888C15.0839 5.96394 15.1482 5.4799 15.5066 5.05438C16.2568 4.16376 17.772 4.39824 18.7522 5.38652Z" stroke="black" stroke-width="2"/>
<path d="M9.99953 27.5L10.0161 16.3495" stroke="black" stroke-width="2" stroke-linejoin="round"/>
</svg>
