<svg width="68" height="91" viewBox="0 0 68 91" fill="none" xmlns="http://www.w3.org/2000/svg">
<path d="M30.5058 89.164C4.77594 51.7262 0 47.8839 0 34.125C0 15.2782 15.2223 0 34 0C52.7777 0 68 15.2782 68 34.125C68 47.8839 63.2241 51.7262 37.4942 89.164C35.8057 91.6121 32.1941 91.6119 30.5058 89.164ZM34 48.3437C41.8241 48.3437 48.1667 41.9778 48.1667 34.125C48.1667 26.2722 41.8241 19.9062 34 19.9062C26.1759 19.9062 19.8333 26.2722 19.8333 34.125C19.8333 41.9778 26.1759 48.3437 34 48.3437Z" fill="#FC3434"/>
</svg>
