<svg width="342" height="343" viewBox="0 0 342 343" fill="none" xmlns="http://www.w3.org/2000/svg">
<mask id="mask0_1203_12699" style="mask-type:alpha" maskUnits="userSpaceOnUse" x="0" y="1" width="341" height="341">
<circle cx="170.494" cy="171.84" r="170" fill="#BCBCBC"/>
</mask>
<g mask="url(#mask0_1203_12699)">
<path d="M33.1349 -76.0643L-103.181 237.492L375.546 445.614L511.861 132.057L33.1349 -76.0643Z" fill="#3C96FF"/>
<path d="M-21.5993 139.231C-19.4993 138.631 -18.4993 138.431 -16.9993 136.931C-16.6993 136.631 -15.2993 135.731 -15.5993 135.331C-16.1993 134.631 -16.6993 134.531 -15.9993 133.831C-15.5993 133.431 -14.5993 132.231 -14.0993 132.131C-13.5993 132.031 -12.4993 133.331 -11.9993 132.731C-10.3993 130.531 -6.09926 129.131 -3.39926 129.731C-1.69926 130.131 0.10074 129.531 1.80074 129.131C2.90074 128.931 4.00074 131.731 4.60074 132.631C5.00074 133.231 6.80074 134.631 7.40074 133.331C8.10074 131.731 8.30074 129.331 10.2007 129.931C11.9007 130.431 13.2007 131.531 13.9007 133.131C15.0007 134.931 10.2007 133.731 10.0007 134.031C8.90075 135.431 11.3007 135.631 10.2007 137.031C9.60074 137.831 7.30074 139.831 7.70074 137.331C7.90074 135.831 8.10074 133.931 6.70074 136.031C5.80074 137.431 5.10074 137.431 3.50074 137.831C1.90074 138.231 0.100742 138.831 -1.49926 139.331C-2.49926 139.631 -3.09926 142.031 -3.49926 142.931C-3.69926 143.531 -6.49926 144.731 -7.09926 144.331C-8.19926 143.831 -9.49926 143.731 -10.2993 142.731C-10.8993 142.031 -10.8993 139.031 -11.7993 138.631C-13.4993 137.931 -14.5993 138.031 -15.4993 139.731C-16.5993 141.631 -16.4993 142.131 -18.5993 142.231C-20.6993 142.331 -22.0993 142.931 -23.5993 141.431C-24.9993 140.431 -22.0993 139.331 -21.5993 139.231Z" fill="#A0D468"/>
<path d="M301.4 116.333C302.7 118.533 304.9 119.933 306.8 121.733C308 122.933 308.3 127.033 308.8 128.833C309.1 129.933 307.1 134.733 308.2 135.233C310.8 136.633 310.3 133.833 313.2 133.233C315.5 132.833 317.4 134.733 319.1 132.733C320.1 131.633 321.1 130.433 322.2 129.333C322.7 128.733 322 127.433 322.5 126.933C323.9 125.333 326.5 122.433 325.9 119.933C325.3 117.433 322.1 114.033 324 112.133C325.6 110.533 329.2 113.433 329.3 111.133C329.3 109.833 326.3 110.533 325.7 109.333C324.3 106.533 329.4 110.633 330.8 109.833C331.9 109.133 330 105.133 330.9 104.233C332.2 102.933 333.9 100.133 335.6 99.4332C337.8 98.4332 339.6 96.8332 341.7 98.0332C344 99.3332 344.5 101.033 346.9 99.7332C347.5 99.4332 348.1 99.1332 348.6 98.7332C348.8 98.5332 348.3 97.4332 348.6 97.2332C349.5 96.3332 354.1 91.2332 351.5 89.3332C349.6 88.0332 345.2 89.2332 346.7 86.2332C348.2 83.2332 343.2 84.1332 342.2 81.8332C341.1 78.9332 338.6 76.7332 335.5 76.2332C334 75.8332 333.7 78.4332 332.2 77.7332C330 76.7332 332.3 76.3332 331 74.3332C329.9 72.7332 327.5 73.5332 325.8 74.3332C323.5 75.4332 321.1 74.8332 322.4 72.6332C322.9 71.7332 324.6 73.5332 325.4 72.8332C327.5 70.9332 324.9 66.9332 322.4 68.2332C320.2 69.3332 319 71.0332 318.4 69.5332C316.7 65.8332 313.6 65.0332 311.3 64.5332C309.3 64.0332 307.2 63.5332 305.2 63.1332C304.3 62.9332 300.8 64.5332 300.9 65.5332C300.9 65.6332 301 65.8332 301 65.9332C300.7 65.8332 300.4 66.0332 299.9 66.5332C298.9 67.3332 301.1 69.9332 299.9 70.1332C296.6 70.8332 298.1 66.7332 295 65.0332C291.9 63.3332 290 61.6332 288.9 64.7332C287.9 67.3332 291.3 69.8332 292.5 72.3332C293.7 74.8332 297.3 76.1332 294.9 77.7332C288.8 81.6332 289.4 96.6332 288.6 99.6332C288.4 100.633 291.5 102.333 291.9 103.433C292.6 105.333 292.9 107.633 294.7 108.433C295.3 108.633 300 110.033 299.9 110.033C297.8 110.333 300.5 114.133 301.6 116.033L301.4 116.333ZM310 71.5332C307.5 73.3332 305.9 71.3332 303.3 69.7332C302.3 68.9332 301.7 67.8332 301.4 66.6332C302.6 67.6332 305.4 67.6332 307 68.3332C309.1 69.4332 312 70.2332 310 71.5332Z" fill="#A0D468"/>
<path d="M326.2 115.233C325.4 113.033 327.5 110.633 329.7 112.933C331.1 114.533 326.8 117.033 326.2 115.233Z" fill="#A0D468"/>
<path d="M-29.4 170.733C-29.3 170.333 -30.1 170.033 -30.1 169.633C-30.2 166.833 -26.4 165.433 -24.5 163.233C-23.9 162.533 -22.1 163.133 -21.3 162.533C-20.5 161.933 -20.1 159.333 -19.9 158.933C-19.4 158.233 -19 157.533 -18.7 156.733C-17.1 152.333 -17.5 152.733 -15.3 152.333C-13.1 151.933 -12.9 146.333 -10.6 147.233C-7.09998 148.833 -14 160.433 -10.6 162.233C-9.29998 162.933 -4.29998 161.233 -3.39998 160.133C-2.69998 159.233 -2.79998 156.633 -2.89998 154.533C-2.99998 153.333 -2.09998 152.333 -0.899982 152.333C-0.699982 152.333 -0.499981 152.333 -0.29998 152.433C1.90002 152.933 4.00002 153.933 5.70002 155.433C7.50002 156.833 7.90002 156.833 7.80002 159.033C7.60002 161.633 6.80002 164.133 9.20002 163.533C10.3 163.233 9.60002 160.433 10.8 160.433C15.3 160.133 16 167.833 18.6 171.433C18.9 171.833 18 172.933 17.8 173.433C17.3 174.333 17.7 175.233 17.9 176.233C18.1 177.233 21.4 177.933 22.4 178.833C24.3 180.733 26.2 182.733 28 184.633C29.1 185.833 28.3 188.933 28.2 190.433C28 195.133 26.1 198.733 24.3 203.033C24 203.733 22 207.033 22.5 207.833C23.9 210.333 24.3 211.633 21.3 212.233C17.3 213.033 13.8 208.733 10.1 207.133C7.90002 206.133 9.60002 204.533 6.90002 203.133C4.70002 201.933 2.70002 200.533 0.900017 198.733C-1.49998 196.233 -6.49998 204.233 -7.39998 202.633C-7.99998 201.533 -9.09998 200.633 -10.4 200.333C-13.1 199.833 -8.79998 203.233 -9.19998 204.333C-9.99998 206.233 -10.7 203.033 -12.6 203.533C-14.1 203.933 -13.7 211.033 -15.7 209.633C-17.1 208.633 -18.8 210.333 -19.7 210.833C-19.9 210.933 -20.3 210.833 -20.4 211.033C-21.2 211.833 -20.9 214.433 -21.2 215.533C-21.4 216.333 -22.2 218.333 -22.8 218.533C-23.2 218.733 -26.1 216.233 -26.5 215.733C-28.3 213.133 -26 209.933 -26.9 208.433C-27.6 207.233 -29.6 207.033 -30.1 206.133C-31.1 204.433 -31.3 199.833 -31.5 198.433C-31.9 195.333 -31.6 193.633 -34.1 191.733C-35.3 190.833 -34.9 184.633 -35 183.133C-35.3 180.433 -34.4 178.233 -33.8 175.533C-33.1 172.533 -29.9 173.933 -29.1 170.833L-29.4 170.733Z" fill="#A0D468"/>
<path d="M53.1007 159.332C53.9008 159.232 55.2008 157.832 55.8008 157.432L61.2008 153.632C62.8008 152.532 64.3008 151.432 65.8008 150.332C66.5008 149.832 66.9008 150.732 67.8008 150.132C69.8008 148.732 71.8008 147.732 73.1007 146.032C73.6007 145.732 73.7008 145.132 73.4008 144.632C73.1008 144.132 72.5008 144.032 72.0008 144.332C69.4008 145.132 65.0007 149.432 64.1007 146.832C63.2008 144.232 66.7007 142.332 69.2007 140.932C70.1007 140.532 71.4007 140.632 72.1007 139.932C73.5007 138.332 72.8008 138.432 73.1007 136.632C73.4007 135.132 74.8008 134.632 76.0008 133.832C76.4008 133.632 75.9008 132.432 75.8008 132.032C75.7008 131.432 76.6008 131.032 77.0008 130.732C77.4008 130.432 78.1008 131.032 78.4008 130.832C78.8008 130.232 79.2008 129.632 79.4008 128.932C80.1008 127.532 80.6007 125.432 82.1007 126.032C84.8008 127.132 84.0008 130.332 85.9008 127.332C87.3008 125.032 90.3007 124.532 92.7007 123.632C93.5007 123.332 93.3008 123.432 93.9008 122.432C95.0008 120.432 94.8008 122.332 95.6007 123.032C97.4007 124.532 100.901 122.632 99.5008 125.832C98.7008 127.832 101.001 131.632 101.701 133.532C102.401 135.432 104.401 138.532 103.101 140.232C101.901 141.732 101.101 143.532 100.801 145.532C100.501 147.132 100.301 148.732 100.201 150.332C100.201 151.832 101.501 152.932 102.901 152.932C103.501 152.932 104.101 152.632 104.601 152.232C109.401 148.132 114.101 144.032 118.801 139.932C119.701 139.132 120.201 137.932 120.101 136.732C119.901 135.532 121.801 133.232 121.701 134.732C121.501 136.632 121.901 138.032 123.901 138.132C125.701 138.332 127.401 138.132 127.601 136.332C127.701 135.332 125.701 134.632 126.501 134.232C127.301 133.832 127.901 135.232 128.601 135.532C130.701 136.232 133.101 133.432 135.201 134.432C137.001 135.232 139.001 136.732 140.601 137.432C141.601 137.832 146.701 139.732 147.301 139.132C150.101 136.632 149.101 139.232 151.401 140.132C153.701 141.032 156.401 140.332 158.901 140.032C160.801 139.832 160.101 137.032 162.801 137.932C164.601 138.532 163.401 140.932 162.301 141.632C160.301 142.832 158.201 146.532 156.301 145.132C155.701 144.632 157.501 141.332 155.601 141.732C154.001 142.032 155.001 144.432 153.701 144.932C151.401 145.932 151.101 143.932 150.601 141.532C150.301 139.832 147.601 141.532 145.601 141.632C143.901 141.732 140.901 141.232 140.201 142.932C138.901 145.932 141.301 151.732 141.901 154.932C142.001 155.632 143.401 155.932 143.901 156.132C145.401 156.832 143.701 156.932 144.101 158.132C144.401 159.132 147.801 161.932 148.501 162.632C149.701 163.932 154.801 166.132 156.001 167.832C158.301 170.932 150.901 170.732 148.401 168.432C146.101 166.332 144.001 162.932 142.301 167.232C141.001 170.632 141.701 174.632 142.801 177.832C144.501 182.632 146.301 187.532 148.001 192.432C148.901 194.832 150.101 198.732 148.701 201.632C147.101 205.132 143.901 206.632 142.101 209.932C141.001 212.132 139.501 213.332 140.401 215.632C140.901 216.732 146.801 225.332 145.801 226.532C144.801 227.732 144.101 229.132 143.901 230.632C143.501 233.432 142.701 233.632 143.801 235.232C144.201 235.832 145.701 237.232 145.701 238.032C145.801 239.132 143.501 241.032 144.001 242.132L147.001 249.732C147.501 250.832 148.101 254.032 149.101 254.732C151.201 256.132 152.001 257.132 154.401 258.132C155.101 258.432 156.701 258.832 157.301 259.432C157.901 260.032 157.901 261.632 158.601 262.132C160.801 263.532 161.801 262.332 163.301 261.032C163.701 259.932 163.801 258.732 163.701 257.632C163.501 257.232 165.701 256.732 166.101 256.532C167.701 255.932 168.801 253.932 170.001 252.732C171.601 251.032 173.301 249.532 175.001 247.832C176.101 246.832 176.001 243.632 176.801 243.132C178.401 242.032 180.801 241.132 182.101 239.732C183.401 238.332 183.801 236.332 184.401 234.632C185.401 231.832 185.401 231.232 184.401 228.432C183.401 225.632 188.101 220.732 189.801 219.132C192.101 217.032 195.401 215.732 198.501 214.432C200.901 213.332 197.501 200.032 204.901 206.632C206.101 207.732 207.701 206.332 209.001 205.732C211.501 204.632 213.901 206.932 215.401 208.832C217.401 211.532 218.101 211.632 221.401 212.232C224.001 212.732 225.001 216.032 231.801 215.932C233.501 215.832 235.201 215.332 236.701 214.632C239.401 213.732 241.901 212.232 244.101 210.332C244.701 209.832 246.101 208.132 246.501 207.832C246.901 207.532 246.401 207.132 247.101 206.932C247.601 206.832 248.101 206.932 248.201 206.432C248.301 205.632 248.301 204.932 248.201 204.132C248.601 202.032 249.801 199.932 250.601 197.932C251.101 196.732 253.101 196.732 253.301 195.932C253.501 194.632 252.701 192.732 252.501 191.332C252.201 188.932 251.901 186.532 251.501 184.132C251.101 181.332 247.901 179.432 248.001 176.932C248.101 175.232 248.901 172.132 248.401 170.532C247.901 168.932 246.201 168.732 246.201 166.732C246.201 164.332 245.801 164.632 243.601 163.632C242.201 163.032 240.101 162.632 239.301 161.232C238.101 159.032 236.801 158.332 234.601 156.832C233.401 156.032 231.001 153.632 229.501 153.532C228.301 153.432 226.801 153.732 226.101 152.232C225.801 151.532 225.201 150.932 224.401 150.632C221.301 149.632 222.901 153.232 221.701 153.432C219.401 153.832 222.101 157.032 219.001 156.732C217.101 156.632 215.101 156.232 213.201 155.932C212.401 155.832 211.801 157.232 211.001 157.232C209.701 157.232 208.401 157.232 207.101 157.332C206.501 157.332 205.001 156.532 205.101 155.832C205.201 155.032 206.701 155.332 206.901 154.632C207.601 151.932 204.801 151.132 202.901 150.332C202.201 150.032 201.501 151.432 200.701 151.332C199.901 151.232 194.401 149.932 192.601 149.232C190.601 148.432 191.801 146.532 188.801 146.832C184.801 147.132 187.501 140.732 188.001 139.132C188.101 138.632 188.201 136.832 188.601 136.932C189.001 137.032 189.501 138.432 190.101 138.732C192.201 140.032 192.901 139.432 195.201 139.532C193.601 141.732 198.001 142.832 199.401 143.032C200.101 143.232 200.301 143.032 201.001 142.732C201.701 142.432 200.701 142.132 201.101 141.632C201.701 141.032 201.301 141.132 203.001 141.732C204.401 142.132 203.601 140.332 204.101 139.432C204.401 138.732 206.001 139.032 205.601 137.732C205.201 136.432 205.201 136.032 203.801 135.432C202.701 134.932 200.701 133.432 202.301 133.432C204.301 133.432 204.901 135.632 206.601 136.432C207.901 137.032 206.601 137.232 207.301 138.032C207.701 138.532 209.501 138.232 209.301 138.332C207.901 139.032 205.501 143.532 205.901 144.432C206.901 147.132 214.501 139.932 215.001 138.932C215.801 137.032 216.701 138.832 217.501 137.332C218.001 138.532 221.001 137.832 222.201 137.832C223.401 137.832 223.601 135.432 224.601 135.932C225.001 136.132 225.501 136.832 226.001 136.832C224.801 137.932 223.401 138.932 222.001 139.732C220.301 140.332 218.601 140.532 216.801 140.532C215.201 140.532 214.601 142.232 216.501 142.632C215.301 144.132 215.501 146.332 216.901 147.632C218.101 145.432 217.301 144.732 219.601 143.832C221.101 143.232 223.901 143.732 225.501 142.932C227.901 141.832 229.901 139.932 232.301 141.132C233.401 141.732 233.101 145.332 235.801 144.332C239.001 143.232 237.701 147.032 237.701 148.232C237.801 149.632 240.401 152.032 239.801 153.332C238.001 157.532 240.101 161.332 244.601 162.832C246.701 163.632 248.001 163.132 250.001 164.232C251.001 164.832 251.501 164.532 251.601 163.532C251.701 162.332 252.401 162.432 253.001 161.532C253.401 160.932 252.701 159.832 253.001 158.832C253.401 157.632 256.601 152.232 255.501 150.732C255.001 150.032 251.201 149.432 250.301 149.032C247.801 147.932 246.301 148.032 246.001 145.332C245.301 138.832 256.001 142.732 254.301 138.932C254.001 138.232 250.701 137.732 250.801 137.032C250.901 135.632 250.701 134.932 249.101 135.232C248.101 135.432 246.201 130.432 246.001 129.532C245.801 128.632 242.901 122.332 241.601 121.632C240.801 121.032 242.901 119.232 243.301 118.932C244.201 118.032 245.101 116.832 244.701 115.532C244.301 114.532 244.201 112.132 242.801 112.132C242.101 112.132 240.301 114.732 240.501 115.432C240.901 116.532 241.001 118.132 239.801 118.932C238.001 120.132 238.001 118.432 236.701 117.832C235.701 117.432 234.101 118.432 233.501 118.132C232.901 117.832 228.401 113.632 228.601 114.032C225.201 113.532 229.401 109.332 229.501 108.632C230.001 106.132 226.001 104.232 225.701 106.732C225.301 106.632 225.001 106.432 224.701 106.232C225.401 104.732 225.501 104.232 227.001 103.632C228.001 103.232 228.401 102.432 227.801 101.532C227.101 100.332 225.901 99.4323 224.601 99.0323C223.601 98.6323 222.401 98.4323 221.901 97.3323C222.901 97.4323 223.701 96.9323 223.701 95.9323C225.101 96.6323 226.301 97.6323 227.301 98.8323C228.801 100.632 228.701 100.832 230.901 100.332C233.401 99.7323 236.101 97.1323 235.101 94.3323C234.701 93.0323 233.401 90.9323 233.401 89.4323C233.401 88.6323 233.001 88.2323 234.101 87.7323C234.701 87.5323 235.401 87.7323 235.801 88.2323C236.801 89.7323 237.401 90.2323 236.601 92.1323C236.201 92.9323 236.901 95.1323 237.301 96.1323C237.601 96.8323 238.201 96.3323 238.401 97.4323C238.601 98.1323 238.701 98.8323 238.601 99.5323C238.301 101.532 237.201 101.732 235.501 102.032C233.501 102.532 233.801 103.632 234.101 105.532C234.501 107.632 235.101 107.332 234.201 109.432C233.301 111.532 232.801 111.632 234.601 113.332C236.001 114.632 234.501 115.632 236.601 116.532C236.701 116.532 241.601 111.932 242.701 111.432C243.501 111.032 243.101 108.832 244.101 109.032C245.901 109.432 245.401 114.732 247.801 114.832C250.001 114.832 251.801 111.132 252.501 109.532C254.901 104.532 253.901 92.7323 251.201 87.5323C246.001 77.4323 234.801 72.8323 234.501 73.0323C234.001 73.3323 233.901 74.2323 234.301 74.3323C235.201 74.7323 233.501 75.4323 233.101 76.0323C230.601 74.0323 229.601 74.1323 226.301 74.0323C223.801 73.9323 221.201 73.1323 219.201 74.7323C218.601 75.1323 218.101 75.7323 217.801 76.4323C217.701 76.1323 217.501 75.8323 216.901 75.6323C216.101 75.3323 214.901 76.4323 214.501 75.6323C213.701 73.8323 219.701 72.7323 219.801 70.8323C219.901 68.3323 217.601 68.9323 215.101 68.8323C213.701 68.7323 214.501 71.8323 213.401 72.6323C211.501 73.9323 211.801 71.4323 212.601 69.2323C212.801 68.5323 210.701 66.5323 210.301 66.0323C209.201 64.6323 201.501 59.7323 201.601 58.8323C201.701 57.5323 202.301 56.5323 201.001 56.1323C197.801 55.4323 193.601 57.7323 191.901 54.9323C190.901 53.4323 192.801 53.1323 194.701 53.1323C195.701 53.1323 196.601 52.6323 197.101 51.8323C197.801 50.6323 199.201 49.6323 198.601 48.3323C197.601 46.1323 198.801 47.6323 199.101 46.1323C199.501 44.3323 200.801 43.7323 197.101 43.0323C196.201 42.8323 195.401 42.5323 194.601 42.1323C193.901 41.8323 191.501 47.2323 190.801 47.9323C188.501 50.1323 186.801 49.2323 185.901 52.6323C185.401 54.4323 185.101 54.7323 186.101 56.2323C186.501 56.8323 187.401 58.8323 185.901 58.0323C185.001 57.5323 182.901 57.0323 183.201 55.9323C183.501 54.8323 183.601 53.0323 184.301 52.0323C185.001 51.0323 186.301 51.1323 185.701 49.8323C185.001 48.3323 184.201 49.8323 183.101 48.5323C181.101 46.2323 185.201 48.9323 186.001 49.1323C187.601 49.6323 188.201 48.1323 189.101 47.1323C191.501 44.3323 197.001 41.3323 194.801 38.3323C194.001 37.2323 194.601 37.4323 193.301 37.8323C187.001 39.6323 190.401 38.9323 189.301 38.1323C188.501 37.6323 185.901 37.9323 185.001 37.8323C183.701 37.7323 182.401 37.1323 183.101 36.0323C184.201 34.2323 189.601 36.8323 188.801 33.1323C188.301 30.7323 188.101 27.6323 186.901 25.4323C183.901 20.2323 175.001 16.5323 177.301 11.0323C178.201 8.73229 179.201 5.03229 176.401 6.13229C174.501 6.93229 174.101 7.53229 172.601 6.33229L168.901 2.83229C168.101 2.13229 165.501 2.33229 164.501 2.13229C163.001 1.93229 163.101 2.93229 162.601 4.23229C161.801 6.03229 161.201 6.33229 162.701 8.53229C163.401 9.63229 163.901 10.8323 164.301 12.0323C164.801 13.6323 166.201 14.7323 165.401 16.1323C164.701 17.3323 163.401 16.5323 163.801 15.3323C164.601 13.1323 162.401 9.93229 160.601 8.73229C158.201 7.13229 155.001 3.73229 152.201 4.73229C151.101 5.13229 150.901 5.43229 150.201 4.53229C150.001 4.33229 148.701 3.23229 149.401 3.13229C150.401 3.03229 151.301 2.33229 151.601 1.33229C152.401 -2.46771 145.401 -5.96771 142.301 -3.66771C141.101 -2.76771 143.801 -0.267712 142.701 0.732288C140.801 2.33229 136.301 1.33229 135.501 -1.06771C135.101 -1.96771 137.401 -2.46771 137.101 -3.36771C136.501 -5.86771 132.701 -5.86771 130.501 -7.16771C129.901 -7.46771 128.901 -7.76771 129.101 -8.46771C129.501 -9.56771 130.001 -8.66771 131.101 -9.36771C133.501 -10.9677 131.701 -12.8677 129.401 -14.4677C127.301 -15.9677 125.201 -17.3677 123.101 -18.9677C121.701 -19.9677 118.101 -19.9677 116.401 -20.2677C113.401 -20.8677 113.001 -20.4677 111.901 -23.2677C111.001 -25.8677 108.701 -26.0677 106.301 -27.1677C105.001 -27.7677 105.101 -27.7677 104.001 -26.7677C103.601 -26.3677 102.601 -25.0677 102.101 -25.5677C100.101 -27.5677 98.1007 -29.5677 96.2007 -31.4677C94.9007 -32.7677 92.3007 -30.8677 91.2007 -32.3677C89.3007 -34.9677 92.6008 -32.8677 94.4008 -34.4677C95.4008 -35.4677 94.6007 -36.8677 93.7007 -37.4677C90.8007 -39.3677 88.0007 -41.2677 85.2007 -43.0677C83.1007 -44.4677 79.8008 -43.9677 77.4008 -44.1677C74.0008 -44.3677 72.4008 -41.5677 69.5008 -43.2677C67.8008 -44.2677 70.1008 -46.5677 68.0008 -46.6677C65.9008 -46.7677 63.2008 -48.6677 61.8008 -47.1677C61.0008 -46.2677 63.5008 -42.6677 62.2008 -42.0677C61.7008 -41.8677 59.7008 -41.3677 59.6007 -40.8677C59.5007 -40.3677 59.1008 -38.4677 59.4008 -38.3677C63.6008 -36.9677 66.8008 -38.6677 71.3008 -37.7677C73.2008 -37.3677 70.5008 -35.3677 69.4008 -34.3677C68.2008 -33.1677 70.2008 -32.2677 69.5008 -30.7677C68.8008 -29.2677 65.7008 -29.1677 64.0008 -29.4677C61.1008 -30.1677 59.0008 -30.0677 60.2008 -27.3677C62.9008 -21.2677 59.3008 -15.7677 63.2008 -12.3677C64.0008 -11.6677 66.2008 -13.6677 66.8008 -11.8677C67.0008 -11.3677 65.9008 -10.1677 66.4008 -9.76771C67.1008 -9.26771 67.7008 -8.66771 68.4008 -8.16771C70.1008 -6.76771 70.3008 -6.76771 68.9008 -5.06771C67.8008 -3.76771 66.5008 -2.66771 65.0008 -1.86771C63.6008 -1.26771 61.9008 -0.0677109 60.8008 0.532288C59.7008 1.13229 61.3007 2.03229 61.1007 2.83229C60.9008 3.63229 58.9008 4.83229 58.3008 5.33229C57.4008 6.13229 58.8008 6.73229 58.8008 7.83229C58.6008 8.73229 58.2008 9.63229 57.8008 10.4323C56.9008 12.7323 53.8008 15.0323 55.0008 17.1323C56.8008 20.3323 61.4008 14.9323 64.5008 12.9323C66.2008 11.8323 67.9007 10.8323 69.6007 9.73229C70.5007 9.13229 70.7007 6.83229 71.2007 5.83229C71.6007 3.73229 72.0008 -7.66771 73.0008 -9.56771C73.7008 -10.9677 73.4007 -13.0677 74.6007 -14.0677C75.4007 -14.6677 77.7008 -12.8677 76.1007 -11.4677C74.5007 -10.0677 74.2008 -10.1677 74.5008 -8.06771C74.8008 -5.76771 74.5008 -5.56771 76.8008 -5.26771C78.1008 -5.06771 78.4007 -7.86771 79.6007 -7.66771C83.1007 -7.16771 82.5007 -0.567715 79.7007 1.33229C77.4007 2.93229 74.7008 0.432289 75.6007 3.13229C76.5007 5.83229 76.5007 7.43229 79.2007 8.33229C80.3007 8.53229 80.0008 6.73229 81.0008 5.83229C81.7008 5.13229 83.1007 6.43229 83.7007 7.33229C84.2007 8.33229 84.8008 9.23229 85.6007 10.0323C86.4007 10.7323 90.9007 13.7323 90.6007 14.7323C89.3008 19.6323 91.6007 25.5323 88.0008 29.1323C87.0008 30.1323 84.3007 30.2323 83.7007 28.9323C83.0007 27.3323 82.7007 25.8323 81.6007 26.4323C79.7008 27.4323 77.8008 28.3323 75.8008 29.3323C73.8008 30.3323 70.0007 33.7323 69.2007 35.7323C67.9007 39.1323 66.0007 42.5323 65.7007 46.1323C65.5007 48.3323 64.6007 51.1323 69.1007 54.0323C70.1007 54.7323 69.0007 56.1323 68.7007 57.2323C68.6007 57.7323 69.1007 58.0323 68.7007 58.4323C68.3007 58.8323 67.5008 59.1323 67.4008 59.4323C67.0008 60.5323 68.5008 61.8323 67.9008 63.0323C67.3008 64.5323 67.5008 64.0323 65.9008 64.9323C64.9008 65.5323 63.7008 65.8323 62.5008 65.8323C61.2008 65.8323 60.6008 67.4323 60.0008 68.3323C58.6008 70.3323 59.8008 72.7323 61.7008 73.7323C62.5008 74.1323 65.4008 72.1323 66.1007 71.2323C66.8008 70.3323 65.4008 68.4323 67.6007 68.3323C68.7008 68.2323 69.6007 69.7323 70.2007 68.6323C70.8007 67.5323 71.3007 65.4323 72.7007 65.8323C73.8007 66.1323 74.1008 67.8323 74.4008 68.7323C75.6008 71.8323 76.6007 67.0323 77.7007 66.2323C79.0007 65.3323 79.9008 68.4323 79.8008 69.8323C79.7008 72.5323 80.1007 72.8323 77.6007 73.8323C74.7008 75.1323 76.3007 72.8323 75.7007 71.5323C75.4007 71.0323 74.2008 70.6323 73.1007 70.2323C72.3008 69.9323 71.5007 70.3323 71.2007 71.1323C71.0007 71.5323 71.1008 72.0323 71.4008 72.4323C71.7008 73.0323 72.0007 73.6323 72.2007 74.2323C72.6007 75.7323 72.6008 77.6323 71.0008 78.3323C69.4008 79.0323 68.8008 80.7323 63.3008 84.5323C61.3008 85.9323 60.3007 85.9323 59.6007 88.1323C59.2008 90.2323 58.9008 92.2323 58.8008 94.3323C58.6008 96.1323 60.1008 99.1323 60.7008 100.832C61.3008 102.932 62.4008 103.632 63.9008 105.232C64.7008 106.032 65.6008 106.632 65.8008 107.832C65.9008 108.532 66.3008 109.232 66.9008 109.632C68.6008 110.632 67.9008 106.932 70.8008 109.932C71.0008 110.132 71.2008 110.432 71.4008 110.732C73.5008 115.632 68.1007 117.032 64.7007 118.532C61.8007 119.732 57.1008 124.632 58.7008 128.332C59.1008 129.232 60.3007 129.232 60.6007 130.332C60.8007 131.032 60.8008 132.932 61.4008 133.432C63.4008 135.432 64.2007 132.632 65.7007 132.032C67.9007 131.032 70.1008 130.232 72.4008 129.732C72.8008 129.632 73.0007 127.732 73.7007 128.532C74.1007 128.932 73.4007 129.932 73.2007 130.332C72.3007 132.432 71.9007 135.032 70.1007 136.432C68.3008 137.832 66.6007 138.132 64.6007 139.132C62.0007 140.532 55.6008 148.532 54.9008 149.632C53.8008 151.232 53.3008 151.632 52.1007 151.832C51.1007 152.032 50.3008 152.932 50.2008 154.032C50.1008 155.232 50.0008 156.432 49.9008 157.732C49.5008 158.232 52.6007 159.332 53.1007 159.332ZM226.701 134.532C228.701 133.732 227.801 134.832 226.301 136.232C226.401 135.632 226.501 134.632 226.701 134.532ZM224.601 81.5323C223.501 82.1323 223.601 84.5323 222.301 84.8323C221.601 85.0323 218.601 85.4323 218.601 84.0323C218.601 83.3323 220.801 82.5323 221.401 82.2323C219.801 81.6323 216.901 82.0323 216.701 80.3323C216.501 78.6323 217.601 77.5323 217.901 76.7323C218.101 79.5323 226.501 80.7323 228.301 81.0323C227.701 82.6323 225.701 80.9323 224.601 81.5323ZM189.601 126.832C188.901 126.532 185.201 125.132 187.201 123.932C189.501 122.632 190.301 122.632 193.001 122.932C194.401 123.032 195.101 120.832 196.401 120.332C198.301 119.632 197.201 124.932 199.701 124.732C201.301 124.632 202.901 122.732 202.001 121.332C203.501 120.832 204.001 121.332 204.401 122.632C204.701 123.232 204.901 123.932 205.001 124.632C205.001 124.932 204.101 125.232 204.101 125.632C204.001 128.432 206.101 128.632 204.201 131.132C203.301 132.432 200.601 133.232 199.501 131.432C198.001 128.832 197.701 127.432 194.701 127.032C192.601 126.732 191.501 127.532 189.601 126.832ZM160.001 165.332C161.501 163.832 163.101 162.432 164.901 161.332C166.201 160.432 167.701 161.032 168.701 160.232C169.901 159.332 170.301 156.932 171.401 157.032C175.101 157.132 176.901 156.332 179.701 154.032C187.801 147.432 186.301 153.332 183.101 156.932C180.801 159.532 169.301 161.832 166.801 163.832C165.501 164.832 165.101 166.632 163.401 167.032C162.701 167.132 162.001 167.332 161.201 167.532C160.501 167.632 159.801 167.132 159.601 166.432C159.601 166.032 159.701 165.632 160.001 165.332ZM169.401 117.232C168.301 116.732 167.501 116.432 168.301 115.032C169.501 113.032 170.201 117.032 171.401 116.532C173.201 115.832 175.001 114.832 176.501 113.532C177.801 112.632 177.001 111.432 175.901 109.532C175.601 109.032 177.101 106.532 177.501 106.732C178.501 107.132 179.501 107.832 180.201 108.632C181.801 110.132 182.301 112.432 181.701 114.532C181.401 115.332 180.501 114.232 180.101 114.632C179.701 115.232 179.401 115.932 179.201 116.632C178.701 117.732 177.501 117.832 176.501 118.232C174.901 118.832 170.101 119.432 171.301 121.132C172.301 122.532 173.101 121.532 172.901 123.032C172.701 124.532 172.501 124.432 170.801 124.832C170.001 125.032 164.701 125.832 165.601 123.832C165.901 123.132 165.701 121.132 166.101 120.632C166.601 120.032 168.701 120.732 169.101 119.832C169.601 118.732 170.601 117.832 169.401 117.232Z" fill="#A0D468"/>
<path d="M15.2007 138.532C14.1007 137.132 11.0007 139.232 12.1007 136.932C13.2007 134.632 15.0007 135.632 17.0007 137.132C17.5007 137.432 18.4007 138.632 17.8007 139.032C16.4007 140.132 16.3007 139.932 15.2007 138.532Z" fill="#A0D468"/>
<path d="M36.1 159.633C34.2 160.233 32.2 159.433 32.1 158.133C31.7 158.633 31.1 158.833 30.5 158.733C29.6 158.533 29.2 157.533 28.6 156.833C28.3 156.533 27.5 156.733 27 156.533C27.2 156.833 27.3 157.333 27.2 157.733C26.9 159.933 22.8 159.933 22.6 157.733C22.5 157.233 22.7 156.833 23 156.433C21.1 155.933 19.5 154.233 20.6 152.433C21.7 150.533 27.4 154.033 26.1 155.733L26.5 155.933C26.1 155.233 26.7 154.733 27.3 154.333C27.9 153.933 29.5 154.333 29.6 155.033C29.7 155.533 28.4 155.933 28.6 156.433C29.5 158.233 32.1 156.233 32.3 157.233L32.4 156.933C33.5 155.133 36.7 156.033 38.7 156.333C41.3 156.733 43.9 157.333 46.5 157.833C48.1 158.133 48.2 158.133 49 159.433C49.5 160.233 49 161.333 47.9 161.133C45.4 160.733 43.1 159.133 40.6 159.633C38.5 160.333 37.8 159.133 36.1 159.633Z" fill="#A0D468"/>
<path d="M19.6 155.433C19.1 156.733 17.7 156.133 17.2 155.333C16 153.433 13.6 153.933 13.5 151.733C13.4 149.633 17.1 150.433 18.2 152.533C18.4 152.933 19.7 154.933 19.6 155.433Z" fill="#A0D468"/>
<path d="M18.4007 134.133C17.4007 132.233 17.8007 131.733 19.5007 130.633C19.9007 130.433 20.4007 130.933 20.7007 130.533C21.2007 129.933 21.5007 128.333 22.3007 128.633C23.1007 128.933 22.7007 132.033 22.2007 132.833C21.6007 133.833 19.0007 135.133 18.4007 134.133Z" fill="#A0D468"/>
<path d="M27.9002 143.333C26.8002 142.833 24.9002 149.333 23.1002 147.533C21.3002 145.733 25.2002 141.733 26.5002 140.733C27.1002 140.233 25.5002 138.433 25.2002 137.733C25.0002 137.333 26.2002 136.933 26.4002 136.733C26.9002 136.433 27.1002 137.233 27.4002 137.633C29.2002 140.233 31.9002 137.933 29.0002 136.433C25.5002 134.533 21.5002 135.633 23.2002 132.033C24.2002 129.633 25.3002 131.633 26.5002 133.833C27.2002 135.033 29.2002 134.133 30.1002 134.333C31.3002 134.533 37.7002 135.933 36.7002 132.133C36.1002 129.933 30.9002 133.333 31.3002 131.133C31.4002 130.733 30.5002 131.533 29.9002 131.333C28.1002 130.433 30.0002 128.233 31.4002 127.233C43.1002 119.333 45.3002 115.233 45.5002 114.733C46.3002 112.933 47.0002 112.933 48.9002 113.233C50.1002 113.433 50.9002 114.533 50.8002 115.733C50.8002 115.833 50.8002 115.933 50.7002 116.033C50.2002 117.233 45.5002 120.633 43.8002 125.533C43.0002 127.733 43.2002 133.533 44.1002 136.333C44.6002 137.933 48.6002 138.833 49.1002 141.933C49.4002 144.133 46.6002 147.733 46.1002 148.333C44.2002 150.733 44.6002 149.833 41.6002 149.433C39.9002 149.133 39.2002 149.833 37.1002 150.833C36.3002 151.233 35.4002 150.033 34.9002 149.433C33.6002 147.533 32.4002 148.033 33.3002 146.033C33.6002 145.333 31.0002 145.833 30.7002 146.033C28.6002 147.233 29.7002 147.833 28.9002 149.733C28.5002 150.533 26.0002 149.433 26.2002 148.633C26.9002 146.633 29.5002 144.033 27.9002 143.333Z" fill="#A0D468"/>
<path d="M65.0006 109.832C67.3006 110.532 67.2006 115.032 64.3006 114.032C63.3006 113.632 62.7006 112.632 62.6006 111.632C63.1006 109.532 63.0006 109.232 65.0006 109.832Z" fill="#A0D468"/>
<path d="M51.6002 100.233C50.0002 100.033 52.1002 95.8329 52.9002 93.6329C53.7002 91.4329 56.2002 90.3329 56.5002 95.0329C56.8002 98.1329 53.8002 100.533 51.6002 100.233Z" fill="#A0D468"/>
<path d="M51.1999 77.1331C48.9999 78.1331 48.6999 75.7331 49.2999 74.2331C50.9999 70.2331 60.9999 74.2331 55.9999 75.5331C54.2999 75.9331 52.6999 76.4331 51.1999 77.1331Z" fill="#A0D468"/>
<path d="M47.9003 71.6325C45.1003 70.4325 45.7003 68.1325 48.4003 66.6325C50.8003 65.3325 50.4003 72.8325 47.9003 71.6325Z" fill="#A0D468"/>
<path d="M43.2998 62.1324C42.5998 61.8324 42.3998 59.8324 42.1998 59.1324C41.4998 56.8324 43.7998 55.3324 45.1998 53.5324C45.5998 53.0324 46.7998 51.8324 46.4998 51.2324C45.7998 49.9324 45.4998 50.0324 46.7998 49.2324C48.4998 48.0324 51.4998 44.9324 52.5998 48.0324C53.5998 50.9324 52.0998 50.6324 50.9998 52.6324C50.4998 53.6324 48.4998 55.5324 51.6998 57.4324C53.3998 58.5324 50.9998 61.1324 52.0998 62.9324C53.9998 66.3324 57.1998 69.8324 54.1998 69.9324C51.3998 70.1324 52.1998 67.2324 50.1998 65.9324C48.6998 64.9324 44.6998 67.8324 45.2998 64.1324C45.3998 62.5324 44.5998 62.6324 43.2998 62.1324Z" fill="#A0D468"/>
<path d="M49.8 27.2324C49.9 26.7324 50 25.9324 50.4 25.8324C52.7 25.4324 53.6 30.4324 51.5 31.2324C51.7 31.5324 51.8 31.8324 51.9 32.1324C52.1 33.8324 52.5 35.6324 53 37.3324C53.9 39.5324 58 35.6324 59.8 35.1324C59.6 34.5324 59.6 34.0324 59.6 33.4324C59.8 31.5324 67.4 30.9324 65.8 27.1324C64.6 24.3324 70.1 22.9324 72.5 21.5324C75.3 19.8324 79.1 14.2324 81.3 16.7324C82.3 17.8324 80.3 20.2324 79.4 21.4324C78.2 22.8324 75.7 23.9324 74.2 24.9324C71.3 26.8324 70.1 29.8324 67.5 32.0324C66.4 32.9324 62.9 36.2324 61 36.1324C61.3 37.6324 58.8 39.4324 58.1 41.2324C57.3 43.1324 59.6 45.2324 57.2 46.5324C55.5 47.5324 52.2 49.5324 52.5 45.7324C52.6 44.5324 56.6 44.8324 56.3 43.4324C56 42.0324 53.2 43.7324 52.2 43.6324C48.9 43.1324 50.3 41.8324 50.2 38.4324C50.2 37.4324 49.2 32.5324 50.2 31.1324C49.3 30.3324 49.7 28.6324 49.8 27.2324Z" fill="#A0D468"/>
<path d="M52.4001 18.3313C54.0001 16.7313 55.6001 19.9313 54.5001 21.4313C55.1001 22.2313 54.7001 23.9313 53.4001 24.9313C51.5001 26.5313 51.6001 22.4313 52.6001 21.4313C51.9001 20.5313 51.7001 18.9313 52.4001 18.3313Z" fill="#A0D468"/>
<path d="M128.101 198.132C129.901 198.432 129.101 205.332 129.301 207.032C129.501 209.032 134.801 209.132 133.201 212.432C132.501 213.932 131.701 215.432 131.001 216.932C130.501 217.832 132.401 219.632 132.001 220.532C131.201 221.832 130.501 223.232 129.901 224.632C129.301 226.632 128.001 229.932 124.701 225.232C123.401 223.332 123.101 221.732 124.401 219.832C125.401 218.432 123.701 212.332 123.501 210.532C123.301 209.032 123.101 209.032 124.501 208.432C126.201 207.732 123.501 205.932 123.501 205.932C121.101 206.032 125.201 197.532 128.101 198.132Z" fill="#A0D468"/>
<path d="M287.2 117.732C285.8 118.432 282.1 117.632 281.1 116.532C279.6 114.832 277.4 112.132 278.5 109.732C279.2 108.032 279.7 108.132 281.5 107.632C283.6 106.932 282.2 108.432 283.3 109.232C284.3 109.832 284.9 108.432 286.2 109.532C286.8 110.432 287.3 111.432 287.6 112.532C288.2 111.332 287.4 110.532 289.4 110.332C290.5 110.232 292.4 112.632 292.2 113.832C291.8 115.832 289.2 113.532 290 115.532C290.4 116.532 289.4 116.632 288.7 116.332C287.6 115.732 288.3 117.132 287.2 117.732Z" fill="#A0D468"/>
<path d="M212.601 56.2331C211.301 55.7331 208.601 57.8331 208.501 55.2331C208.401 52.6331 209.401 52.3331 210.901 50.6331C211.601 49.8331 211.001 49.2331 211.201 46.8331C211.301 45.5331 213.301 43.0331 212.501 41.9331C211.301 40.4331 210.201 38.8331 209.301 37.1331C208.701 36.0331 206.601 35.4331 207.101 34.4331C208.301 31.6331 209.501 29.5331 211.201 32.0331C213.801 35.9331 216.401 36.0331 217.101 39.1331C217.701 41.8331 216.201 43.0331 216.001 45.1331C215.901 46.9331 217.401 47.9331 216.901 49.7331C216.401 51.5331 216.801 52.0331 217.201 54.4331C217.601 56.9331 214.501 56.9331 212.601 56.2331Z" fill="#A0D468"/>
<path d="M98.6999 149.033C98.2999 149.733 97.8999 150.433 97.4999 151.133C97.3999 151.533 98.4999 151.233 98.0999 151.733C97.6999 152.233 97.4999 152.733 97.0999 153.233C95.7999 155.333 94.4999 154.533 93.2999 152.833C92.3999 151.633 93.8999 149.833 94.8999 148.733C95.1999 148.233 99.7999 146.833 98.6999 149.033Z" fill="#A0D468"/>
<path d="M342.201 238.233C340.201 239.533 337.101 238.133 338.401 236.133C339.101 235.033 344.701 236.733 342.201 238.233Z" fill="#A0D468"/>
<path d="M323.801 159.331C325.301 159.731 325.001 162.131 325.601 163.631C325.901 164.431 327.601 167.131 327.401 167.931C326.701 170.631 319.501 168.931 317.801 168.831C316.301 168.731 317.801 162.331 319.801 163.531C320.401 163.931 323.401 165.331 322.601 163.331C321.601 160.731 321.201 158.631 323.801 159.331Z" fill="#A0D468"/>
<path d="M281.2 336.632C281.8 335.932 282.7 335.632 283.6 335.932C285 336.732 284.5 341.132 282.2 341.732C278.7 342.432 280.4 337.532 281.2 336.632Z" fill="#A0D468"/>
<path d="M257.5 256.233C257.5 257.933 259.5 260.733 260.2 262.333C261.3 264.833 261.7 264.733 259.6 266.633C258.4 267.633 257.9 271.033 257.3 272.433C256.1 275.733 254.7 281.133 258.6 282.833C260.8 283.833 261.4 285.133 262.7 287.233C264.2 289.633 264.8 289.733 263.8 292.233C262.4 295.833 262.1 299.833 262.9 303.633C263.2 305.533 264.4 307.533 265.1 309.333C265.9 311.333 269 309.033 269.3 311.133C269.6 312.533 266.7 312.333 265.5 313.033C264.6 313.533 265.3 315.333 265.4 316.233C265.8 319.333 268.4 318.633 269.3 321.733C269.5 322.233 267.1 324.733 267.3 325.033C268.2 325.933 270.5 327.133 269.6 328.233C267.5 330.833 267.7 333.733 267.4 336.933C267.2 339.933 265.4 339.233 264.5 342.833C264.2 344.033 264.3 347.433 263.8 348.633C261.6 355.133 256.4 350.233 254.7 351.233C253.2 352.133 256.1 353.633 258.4 354.833C259.5 355.433 266.5 354.933 267.7 354.233C269.7 353.033 278.4 347.433 278.5 344.233C278.6 341.733 277.7 339.033 278.4 336.933C279.2 333.933 280.6 332.833 283.7 332.533C285.5 332.333 286.8 328.133 287.5 326.633C292.4 316.533 297.3 306.533 302.3 296.433C303.8 293.333 306.7 294.033 310 293.433C311.3 293.233 314.4 293.333 315.5 292.433C317 291.233 318.5 290.133 320 288.933C323.9 285.933 327.8 282.833 331.7 279.833C333.9 278.133 330.9 276.133 331.5 275.033C331.8 274.433 333.8 274.833 333.6 273.933C333.5 273.033 333.6 272.033 334 271.233C334.6 269.633 332.1 268.433 332.2 266.733C332.2 265.133 331.6 261.733 332.4 260.333C333.2 258.933 334.1 255.733 335.8 255.133C338.5 254.133 336.8 257.233 337.8 258.533C342.1 263.833 345.4 264.033 349.6 257.333C352.1 253.433 354.5 254.533 358.3 253.733C360.5 253.233 362.3 252.733 364.5 252.133C367.3 251.333 366.3 254.233 368.3 254.233C370.6 254.233 373.4 254.633 375.6 254.033C377.6 253.533 379.8 251.933 381.6 251.033C384.1 249.833 384.3 249.533 385.4 246.933C385.8 245.633 386.7 244.433 387.9 243.533C390.3 241.633 392.8 239.633 395.2 237.633C396.3 236.733 398.5 235.633 399.3 234.333C399.9 233.533 399.5 231.733 400.2 231.033C400.4 230.833 402 229.833 401.7 230.733C401.2 232.733 400.2 234.633 398.8 236.133C396 239.433 394.8 245.633 396.4 245.133C397.4 244.733 397.8 242.833 398.2 241.933C399.2 240.433 400.3 239.033 401.6 237.733C403.7 235.533 405.8 233.233 407.6 230.833C408.1 230.033 408.6 227.933 409.5 227.433C410.4 226.933 419.3 190.033 422.7 188.733C425.2 187.833 429.5 177.733 429.8 177.133C430.8 174.833 431 169.233 434 168.133C434.1 168.033 434.3 168.133 434.3 168.233C434.8 169.433 432.8 173.133 434.1 173.433C435.7 173.833 435.9 168.533 437.2 167.533C438.5 166.533 441.8 166.133 443.5 165.933C444.9 165.733 445.3 163.433 448.6 163.333C450.5 163.233 454.3 164.533 455.8 163.933C458.7 162.833 464.5 168.933 467 163.033C469.6 156.833 467.2 146.833 466.5 146.133C464.6 144.633 466 143.033 468.5 142.733C470.6 142.533 471.2 142.833 471.5 140.933C472.6 134.233 462.1 129.333 458.4 126.733C455.8 124.933 453 127.933 449.7 127.433C446.6 127.033 443.5 127.833 440.9 129.633C432.2 135.533 418.8 129.533 418 131.133C417.8 131.433 416.5 130.833 417.3 130.433C417.9 130.133 418.1 129.433 417.9 128.833C416.4 125.333 413.4 128.733 410.4 130.233C408.2 131.333 405.3 129.833 403.8 131.833C401.5 134.833 404.4 135.533 400.8 134.733C400.2 134.633 388.5 125.933 375.7 128.333C373.7 128.733 367.9 128.233 367.6 126.333C367.3 124.633 368.3 122.133 366.8 121.333C365.8 120.733 362 122.633 361.8 123.833C361.6 124.733 361.7 128.333 360.6 129.233C358.1 131.333 360 119.633 361.8 118.733C362.9 118.233 364.3 117.233 365.5 117.133C369.7 116.933 373.2 119.433 375.7 118.833C377.4 118.433 380.7 115.733 381 114.033C381.5 111.533 376.9 104.433 378.5 104.133C379.6 103.933 382.5 103.433 382.1 101.533C381.7 99.4326 375.5 100.533 375 101.433C372.8 105.433 372.2 105.733 367.8 104.333C367 104.033 365.7 102.133 365 102.333C363.5 102.733 361.1 102.133 360.5 103.533C359.9 104.933 361.6 107.333 363.1 107.433C364.6 107.533 365.9 110.633 364.4 109.733C362.9 108.833 353.5 107.033 351.4 110.033C349.9 112.233 350.8 115.833 349.9 116.633C348.5 118.033 342 126.433 344.3 126.933C346 127.433 346.9 123.333 348.5 123.833C350.1 124.333 349.4 125.633 348 126.633L344.2 129.133C343.3 129.733 345.3 134.733 345.6 135.833C345.8 136.733 351.6 135.233 352.7 135.033C354.2 134.733 355.7 130.533 357.3 130.633C358.1 130.633 360.6 134.633 361.6 133.433C362.1 132.833 362.2 132.133 362.6 132.033C363.3 131.833 364 132.533 365.5 132.533C367.2 132.433 384.7 151.333 377.1 156.733C375.8 157.633 368.5 161.133 366.8 161.133C365.4 161.133 360.7 160.333 359.7 161.133C358.7 161.933 359.9 164.433 359 165.333C357.5 166.933 356.5 163.933 357.3 161.933C358.1 159.733 354.4 160.733 354.2 158.733C354 156.033 351.9 150.833 351.1 148.233C347.7 136.633 334.9 145.233 333.8 147.133C333.1 148.233 332.3 150.333 331.2 150.933L324.5 154.333C323.7 154.733 322.2 157.533 322.9 158.033C324.3 159.133 327 160.433 327.6 162.133C328.6 164.833 328.3 165.333 331 165.833C332.9 166.133 334.8 166.633 336.6 167.233C338.1 167.833 340.5 170.433 339.4 171.333C338.5 172.133 336.1 168.233 335 168.233C332.8 168.233 333.6 171.133 333.2 172.433C332.8 173.733 331.4 176.533 329.6 174.433C329.2 173.933 329 173.333 329 172.833C328.8 172.333 327.6 171.433 327.1 171.833C326.2 172.533 326.9 175.833 327.5 176.733C328.4 178.033 329.6 179.033 331 179.733C331.8 180.133 333.3 181.833 334.2 181.533C335.1 181.233 332.6 179.033 334.3 177.933C336.2 176.633 337.7 181.533 338.5 182.933C339.2 184.033 337.3 184.833 337.8 188.033C338.3 190.933 342.9 191.633 344 193.333C344.9 194.633 347.9 207.333 348.4 208.133C350.3 210.733 351.1 213.933 350.8 217.133C350.7 218.333 349.5 219.633 348.7 220.533C347 222.233 347.1 221.833 347.5 224.333C347.9 226.433 348.1 226.333 350.1 227.133C350.6 227.333 352.4 224.633 352.8 224.133C353.5 223.333 353.2 216.233 356.8 218.233C357.9 218.833 371.1 219.233 373.4 230.033C373.9 232.433 373.8 234.933 373.2 237.333C372.4 240.933 371.7 242.033 369.3 244.933C367.5 247.033 364.2 245.333 362.3 244.033C361.7 243.633 359.8 237.933 359.3 237.633C357.7 236.433 357.7 236.133 355.9 236.733C354.5 237.233 355.2 238.633 355.4 240.033C355.6 242.433 357.2 244.933 356.2 247.033C355.4 248.933 352.6 246.533 350.8 245.733C349.2 244.933 345.8 249.633 345.6 251.333C345.4 253.033 337.9 251.533 335.4 249.533C333.2 247.733 327.3 243.133 324.9 242.233C322.5 241.333 321.8 243.633 319.2 243.333C317.3 243.033 312.6 240.233 312.1 241.233C311.6 242.433 309.5 242.733 308.5 242.833C306.5 243.233 304.5 243.833 302.6 244.533C301.8 244.833 301.6 244.733 300.8 245.033C299.4 245.533 299.9 244.533 298.8 243.733C297.2 242.533 295.8 243.233 294 243.533C291.7 243.933 290.6 243.133 289.5 245.233C288.2 247.633 290.2 249.533 288 251.133C286.7 252.233 284.8 249.933 283.2 249.533C279.1 248.633 275 248.133 270.8 248.233C268.6 248.333 260.2 247.533 259.4 249.433C259.2 251.533 257.4 254.333 257.5 256.233ZM321 270.033C321 270.133 321 270.133 320.9 270.133C320.9 270.033 321 270.033 321 270.033Z" fill="#A0D468"/>
<path d="M262.401 125.632C262.001 125.832 261.601 124.832 261.101 124.932C260.401 125.132 259.801 126.532 260.301 126.832C261.301 127.532 263.501 127.032 263.801 127.732C264.401 128.832 263.101 129.532 264.501 130.032C265.901 130.532 265.801 130.432 265.301 131.932C264.901 132.432 264.501 132.932 264.101 133.432C264.101 134.132 265.601 134.932 265.601 135.632C265.501 137.432 262.801 137.232 261.901 136.232C261.301 135.632 258.801 133.132 259.001 132.432C259.201 131.432 260.001 128.332 259.201 127.332C258.001 125.532 255.001 128.332 256.701 129.432C257.501 129.932 258.501 133.832 257.501 134.732C256.801 135.332 255.501 133.132 255.001 133.932C254.001 135.232 258.601 136.432 257.901 137.832C256.501 140.832 254.301 136.832 252.101 134.332C250.501 132.532 245.501 133.132 247.601 130.432C247.801 130.132 248.501 130.632 248.601 130.332C249.901 126.432 251.301 127.032 252.201 126.232C253.301 125.232 254.401 124.332 255.601 123.332C257.001 122.132 256.601 121.132 257.201 119.832C258.001 118.032 258.801 120.632 259.901 120.032C260.301 119.832 258.901 116.632 261.301 117.332C262.101 118.232 262.601 119.232 263.001 120.332C262.801 122.232 263.901 124.732 262.401 125.632Z" fill="#A0D468"/>
<path d="M227.2 103.633C227.9 102.833 230.1 103.433 229.7 104.733C229.3 106.333 227.2 104.933 227.2 103.633Z" fill="#A0D468"/>
<path d="M228.401 149.832C227.001 149.732 226.801 149.432 226.301 148.132C226.401 146.932 226.901 145.832 227.501 144.832C228.601 144.332 229.401 145.732 230.001 146.332C230.601 146.932 228.801 149.232 228.401 149.832Z" fill="#A0D468"/>
<path d="M229.9 141.031C230.8 141.131 231.4 143.831 230.4 144.731C228.7 146.231 228 143.931 228.8 142.731C229.2 142.131 229.3 141.031 229.9 141.031Z" fill="#A0D468"/>
<path d="M237.2 117.331C236.7 116.431 239 114.131 239.8 115.931C241 118.531 238.1 118.931 237.2 117.331Z" fill="#A0D468"/>
<path d="M232.101 106.133C233.301 108.333 233.301 108.233 231.501 109.933C230.601 107.833 230.501 107.833 232.101 106.133Z" fill="#A0D468"/>
<path d="M199.6 145.732C199 144.832 199.1 144.332 200 143.932C200.5 143.732 200.8 144.532 201.3 144.832C202.4 145.332 205.7 144.932 204.2 146.532C202.7 148.132 201.7 146.732 199.6 145.732Z" fill="#A0D468"/>
<path d="M210.801 364.032C210.801 364.032 214.201 345.332 168.001 326.432C142.601 316.132 134.601 303.732 118.701 298.032C82.4008 285.132 57.8008 297.532 57.8008 297.532L210.801 364.032Z" fill="#A0D468"/>
<path d="M-462.555 -310.16L-612.506 34.7617L-85.907 263.695L64.044 -81.226L-462.555 -310.16Z" fill="#3C96FF"/>
</g>
<path d="M170.9 4.33203C263.1 4.43203 337.8 79.232 337.8 171.432C337.8 238.432 297.6 298.932 235.9 325.132C150.9 360.932 53 321.132 17.1 236.232C-18.7 151.232 21.1 53.332 106 17.432C126.6 8.73203 148.7 4.23203 170.9 4.33203ZM171 0.332031C76.6 0.332031 0 76.732 0 171.132C0 265.532 76.5 342.132 170.9 342.132C265.3 342.132 341.9 265.632 341.9 171.232C341.9 171.232 341.9 171.232 341.9 171.132C341.9 76.832 265.3 0.332031 171 0.332031C170.9 0.332031 170.9 0.332031 171 0.332031Z" fill="#0C662F"/>
<path d="M170.9 4.33203C263.1 4.43203 337.8 79.232 337.8 171.432C337.8 238.432 297.6 298.932 235.9 325.132C150.9 360.932 53 321.132 17.1 236.232C-18.7 151.232 21.1 53.332 106 17.432C126.6 8.73203 148.7 4.23203 170.9 4.33203ZM171 0.332031C76.6 0.332031 0 76.732 0 171.132C0 265.532 76.5 342.132 170.9 342.132C265.3 342.132 341.9 265.632 341.9 171.232C341.9 171.232 341.9 171.232 341.9 171.132C341.9 76.832 265.3 0.332031 171 0.332031C170.9 0.332031 170.9 0.332031 171 0.332031Z" fill="#0C662F"/>
</svg>
