<svg width="40" height="43" viewBox="0 0 40 43" fill="none" xmlns="http://www.w3.org/2000/svg">
<path d="M6.94986 42.0025C4.89263 41.8769 3.07095 41.767 1.24928 41.657C0.621114 41.6256 0.416961 41.343 0.416961 40.6991C0.464073 37.8095 0.479778 34.9043 0.448369 31.999C0.432665 31.0725 0.25992 30.1302 0.134287 29.2037C-0.179794 26.8638 0.118583 24.571 0.401257 22.2468C0.479778 21.6343 0.495482 20.9905 0.401257 20.378C0.0400629 17.8811 -0.116978 15.3998 0.134287 12.8714C0.322737 11.0812 0.511186 9.29091 0.558298 7.48494C0.60541 5.72608 0.495482 3.95152 0.448369 2.17696C0.416961 1.15619 0.52689 1.04626 1.56336 0.952036C5.69354 0.559434 9.80801 0.826403 13.9382 0.952036C16.1839 1.01485 18.4296 0.716475 20.6752 0.700771C23.4706 0.685067 26.2659 0.873516 29.0612 0.842108C31.3383 0.826403 33.6154 0.606546 35.9082 0.512322C36.7562 0.480913 37.62 0.512322 38.468 0.575138C39.049 0.606546 39.3317 1.01485 39.3788 1.5802C39.4573 2.49104 39.5516 3.40187 39.6144 4.31271C39.74 6.29143 39.8656 8.27014 39.9442 10.2489C40.007 11.992 40.007 13.7509 39.9913 15.5097C39.9599 18.4307 39.8499 21.3517 39.8499 24.2569C39.8499 26.377 40.0384 28.497 39.9913 30.6014C39.8971 33.8678 39.6772 37.1186 39.4887 40.385C39.4102 41.8141 39.1276 42.0968 37.7299 42.2852C37.6514 42.3009 37.5728 42.3009 37.4943 42.3009C35.3429 42.1753 33.1914 42.0025 31.0399 41.9083C29.7679 41.8612 28.4802 41.9554 27.2081 41.9554C24.8054 41.9554 22.4027 41.9554 20 41.9397C16.7021 41.9083 13.42 41.8455 10.1221 41.8298C8.97569 41.8298 7.845 41.9554 6.94986 42.0025ZM38.9234 9.90337C38.9077 9.90337 38.9077 9.90337 38.892 9.90337C38.8763 9.54218 38.8606 9.16528 38.8449 8.80408C38.6721 6.77826 38.468 4.75243 38.3423 2.71089C38.2638 1.53309 38.1225 1.34464 36.9604 1.40745C36.6934 1.42316 36.4422 1.47027 36.1909 1.51738C33.7568 2.06703 31.2598 1.70583 28.81 1.98851C28.7628 1.98851 28.7 1.9571 28.6529 1.9571C26.4543 1.90999 24.2715 1.78435 22.0729 1.83147C19.2305 1.87858 16.3723 2.17696 13.5299 2.12984C9.72949 2.08273 5.9448 1.72154 2.16012 2.05132C1.7047 2.09844 1.48484 2.19266 1.51625 2.67949C1.56336 3.5118 1.64188 4.34412 1.61047 5.17644C1.51625 7.7048 1.37491 10.2017 1.26498 12.6987C1.21787 13.8451 1.10794 14.9915 1.17076 16.1222C1.24928 17.5513 1.56336 18.9646 1.59477 20.3937C1.62618 21.5244 1.35921 22.6708 1.31209 23.8015C1.23357 25.7488 1.20217 27.7118 1.21787 29.6591C1.21787 30.3658 1.46914 31.0568 1.48484 31.7635C1.54766 34.2133 1.54766 36.6631 1.57906 39.1287C1.57906 39.5684 1.42202 40.2123 1.64188 40.4007C1.92455 40.6363 2.50561 40.5106 2.96102 40.5421C3.08666 40.5578 3.21229 40.5892 3.35363 40.5892C5.33234 40.6206 7.31106 40.6834 9.28977 40.6677C11.6925 40.652 14.0952 40.4949 16.498 40.5264C19.1048 40.5578 21.7117 40.7305 24.3186 40.8561C26.9412 40.9818 29.5795 40.2751 32.2178 40.9347C32.4376 40.9818 32.6889 40.8875 32.9244 40.9032C33.9609 40.9504 34.9817 41.0132 36.0181 41.0917C36.4893 41.1231 36.9447 41.233 37.4158 41.2487C37.9969 41.2644 38.3424 40.9661 38.3266 40.3379C38.3109 39.8668 38.3581 39.3957 38.3738 38.9245C38.5622 35.8465 38.8135 32.7842 38.9234 29.7062C38.9862 27.649 38.8292 25.5761 38.8135 23.5188C38.8135 22.6551 38.9705 21.8071 38.9705 20.9433C38.9862 19.1688 38.9234 17.3942 38.9077 15.6354C38.9077 13.7195 38.9234 11.8036 38.9234 9.90337Z" fill="black"/>
<path d="M18.9162 34.2437C17.2516 34.2437 15.7754 34.0395 14.7075 32.7047C14.5819 32.5476 14.2835 32.5476 14.0951 32.4063C13.938 32.2964 13.7182 32.0608 13.7653 31.9666C13.8281 31.7938 14.0951 31.5426 14.205 31.5583C14.6447 31.6682 15.1315 31.7781 15.4456 32.0608C17.2987 33.7725 20.2511 33.804 22.0884 32.0608C22.5282 31.6525 22.8736 31.15 23.3134 30.7574C23.5175 30.5689 23.863 30.5532 24.1457 30.459C24.1457 30.7574 24.2556 31.1657 24.1143 31.3541C22.7794 33.113 21.2561 34.542 18.9162 34.2437Z" fill="black"/>
<path d="M29.8466 15.4311C29.454 15.8708 29.1085 16.3891 28.6374 16.7031C28.1348 17.0329 27.6009 16.6874 27.5538 16.0436C27.5224 15.6353 27.5381 15.2113 27.6009 14.8029C27.6951 14.269 27.9778 13.688 28.5431 13.7508C28.9043 13.7979 29.2341 14.3161 29.5325 14.6616C29.6581 14.8029 29.6424 15.0542 29.7053 15.2427C29.7524 15.3212 29.7995 15.3683 29.8466 15.4311Z" fill="black"/>
<path d="M8.66139 14.8499C8.69279 14.6144 8.67709 14.3631 8.75561 14.1589C8.95976 13.5936 9.38377 13.2324 9.99623 13.2795C10.5773 13.3266 10.7343 13.7977 10.7814 14.3003C10.7971 14.5829 10.7971 14.8813 10.7343 15.1483C10.593 15.7451 10.2946 16.2633 9.57222 16.1848C8.77131 16.0905 8.64568 15.5095 8.66139 14.8499Z" fill="black"/>
<path d="M18.6027 21.9645C18.6027 21.6033 18.5713 21.2264 18.6184 20.8809C18.6498 20.7395 18.8697 20.6139 19.011 20.4883C19.1209 20.6139 19.3094 20.7395 19.3251 20.8652C19.4036 21.5876 19.4664 22.31 19.4978 23.048C19.4978 23.2051 19.2623 23.4878 19.1837 23.4878C18.9953 23.4564 18.7126 23.2993 18.6655 23.1423C18.5713 22.7654 18.6027 22.3728 18.5713 21.9802C18.587 21.9802 18.587 21.9645 18.6027 21.9645Z" fill="black"/>
</svg>
