<svg width="193" height="181" viewBox="0 0 193 181" fill="none" xmlns="http://www.w3.org/2000/svg">
<path d="M87.3405 13.3867L90.5452 20.3301L90.9959 21.3148C91.2045 21.7738 91.8722 21.8907 92.2811 21.6486C92.7568 21.3732 92.8319 20.8224 92.6149 20.3635L89.4102 13.4201L88.9595 12.4354C88.7509 11.9764 88.0832 11.8596 87.6743 12.1016C87.1986 12.377 87.1235 12.9277 87.3405 13.3867Z" fill="#FFCF07"/>
<path d="M80.3633 21.7845L87.5239 24.4217L88.5504 24.7972C89.0261 24.9725 89.5769 24.5969 89.7021 24.1379C89.844 23.6122 89.5268 23.1615 89.0428 22.9863L81.8822 20.3492L80.8557 19.9736C80.38 19.7984 79.8292 20.1739 79.704 20.6329C79.5621 21.1587 79.8792 21.6093 80.3633 21.7845Z" fill="#FFCF07"/>
<path d="M81.3907 32.6577L88.3343 29.453L89.3191 29.0024C89.7781 28.7938 89.895 28.1261 89.653 27.7172C89.3776 27.2415 88.8267 27.1664 88.3677 27.3834L81.4241 30.588L80.4393 31.0387C79.9803 31.2473 79.8635 31.9149 80.1055 32.3238C80.3809 32.7995 80.9317 32.8747 81.3907 32.6577Z" fill="#FFCF07"/>
<path d="M89.7944 39.6342L92.4316 32.4739L92.8072 31.4474C92.9824 30.9717 92.6069 30.421 92.1479 30.2958C91.6221 30.1539 91.1714 30.471 90.9962 30.9551L88.3589 38.1153L87.9834 39.1418C87.8081 39.6175 88.1837 40.1683 88.6427 40.2935C89.1685 40.4354 89.6191 40.1182 89.7944 39.6342Z" fill="#FFCF07"/>
<path d="M100.669 38.5998L97.4639 31.6565L97.0132 30.6717C96.8046 30.2127 96.1369 30.0959 95.728 30.3379C95.2523 30.6133 95.1772 31.1641 95.3942 31.6231L98.5989 38.5664L99.0496 39.5512C99.2582 40.0102 99.9259 40.127 100.335 39.885C100.811 39.6096 100.886 39.0588 100.669 38.5998Z" fill="#FFCF07"/>
<path d="M107.638 30.1953L100.477 27.5581L99.4504 27.1826C98.9747 27.0073 98.4239 27.3829 98.2987 27.8419C98.1568 28.3676 98.474 28.8183 98.958 28.9935L106.119 31.6307L107.145 32.0062C107.621 32.1814 108.172 31.8059 108.297 31.3469C108.439 30.8212 108.122 30.3705 107.638 30.1953Z" fill="#FFCF07"/>
<path d="M106.611 19.3287L99.6673 22.5333L98.6825 22.984C98.2235 23.1926 98.1066 23.8602 98.3487 24.2692C98.6241 24.7448 99.1749 24.8199 99.6339 24.603L106.578 21.3984L107.562 20.9477C108.021 20.7391 108.138 20.0715 107.896 19.6625C107.621 19.1869 107.07 19.1117 106.611 19.3287Z" fill="#FFCF07"/>
<path d="M98.2071 12.3535L95.5699 19.5138L95.1943 20.5403C95.0191 21.016 95.3946 21.5667 95.8536 21.6919C96.3794 21.8338 96.8301 21.5167 97.0053 21.0326L99.6426 13.8724L100.018 12.8459C100.193 12.3702 99.8178 11.8194 99.3588 11.6942C98.833 11.5523 98.3824 11.8695 98.2071 12.3535Z" fill="#FFCF07"/>
<path d="M92.489 0.904428L92.948 14.257L93.0147 16.1764C93.0565 17.3781 94.9343 17.3865 94.8925 16.1764L94.4335 2.82387L94.3667 0.904428C94.325 -0.2973 92.4472 -0.305645 92.489 0.904428Z" fill="#FFCF07"/>
<path d="M75.1892 9.31638L84.9954 18.4712L86.3641 19.748C87.2487 20.5742 88.5757 19.2473 87.691 18.4211L77.8849 9.26629L76.5162 7.98945C75.6315 7.16326 74.3046 8.49019 75.1892 9.31638Z" fill="#FFCF07"/>
<path d="M68.9045 27.4998L82.2576 27.0409L84.1771 26.9741C85.3789 26.9324 85.3872 25.0547 84.1771 25.0964L70.824 25.5554L68.9045 25.6221C67.7027 25.6639 67.6943 27.5416 68.9045 27.4998Z" fill="#FFCF07"/>
<path d="M77.3252 44.8009L86.4721 34.9951L87.749 33.6264C88.5752 32.7418 87.2482 31.4149 86.422 32.2995L77.2751 42.1053L75.9983 43.474C75.172 44.3586 76.499 45.6855 77.3252 44.8009Z" fill="#FFCF07"/>
<path d="M93.9993 70.6035L94.8589 40.093L94.9758 35.8119C95.0091 34.6018 93.1314 34.6018 93.098 35.8119L92.2384 66.3224L92.1215 70.6035C92.0882 71.8136 93.9659 71.8136 93.9993 70.6035Z" fill="#FFA19F"/>
<path d="M112.811 42.6726L103.005 33.5261L101.636 32.2492C100.752 31.423 99.4247 32.7499 100.309 33.5761L110.116 42.7226L111.484 43.9995C112.369 44.8257 113.696 43.4987 112.811 42.6726Z" fill="#FFCF07"/>
<path d="M119.095 24.487L105.742 24.946L103.822 25.0128C102.621 25.0545 102.612 26.9322 103.822 26.8905L117.176 26.4315L119.095 26.3647C120.297 26.323 120.305 24.4453 119.095 24.487Z" fill="#FFCF07"/>
<path d="M110.675 7.18821L101.528 16.994L100.251 18.3626C99.425 19.2472 100.752 20.5741 101.578 19.6895L110.725 9.88376L112.002 8.51512C112.828 7.63051 111.501 6.30361 110.675 7.18821Z" fill="#FFCF07"/>
<path d="M162.435 137.869V178.324H26.5039V137.869C26.5039 123.397 38.2301 111.645 52.728 111.645H136.211C150.695 111.645 162.435 123.397 162.435 137.869Z" fill="#774D28"/>
<path d="M129.934 84.3944V112.804H59.0039V84.3944C59.0039 75.9328 65.8797 69.0703 74.3546 69.0703H114.584C123.045 69.0703 129.934 75.9328 129.934 84.3944Z" fill="#774D28"/>
<path d="M189.312 180.871H3.05147C1.37249 180.871 0 179.498 0 177.819C0 176.14 1.37249 174.768 3.05147 174.768H189.299C190.977 174.768 192.35 176.14 192.35 177.819C192.35 179.498 190.977 180.871 189.299 180.871H189.312Z" fill="#B3B3B3"/>
<path d="M162.435 137.869V139.414H26.5039V137.869C26.5039 123.397 38.2301 111.645 52.728 111.645H136.211C150.695 111.645 162.435 123.397 162.435 137.869Z" fill="#FFCF07"/>
<path d="M129.934 84.3944V88.7251H59.0039V84.3944C59.0039 75.9328 65.8797 69.0703 74.3546 69.0703H114.584C123.045 69.0703 129.934 75.9328 129.934 84.3944Z" fill="#A0D468"/>
<path d="M26.5174 137.868C26.5174 137.868 22.6264 154.685 26.5174 155.458C30.4084 156.23 29.6355 139.414 32.7536 139.414C35.8717 139.414 33.5265 143.332 36.6446 144.984C39.7627 146.636 42.6143 139.494 44.4399 137.868C46.2521 136.243 46.2521 143.252 48.3308 142.732C50.4096 142.212 53.2612 137.628 53.2612 137.628L26.5041 137.868H26.5174Z" fill="#FFCF07"/>
<path d="M129.935 84.3945C129.935 84.3945 134.306 104.382 130.415 105.169C126.524 105.941 127.297 89.125 124.178 89.125C121.06 89.125 123.406 93.0426 120.287 94.6949C117.169 96.3473 114.318 89.2049 112.492 87.5792C110.68 85.9536 110.68 92.9627 108.601 92.443C106.522 91.9233 103.671 87.3394 103.671 87.3394L129.948 84.4078L129.935 84.3945Z" fill="#A0D468"/>
<path d="M85.4679 136.496C84.9482 140.907 84.1753 144.664 86.7604 146.557C89.3588 148.449 88.5726 143.252 90.3982 142.999C92.2104 142.746 91.5175 157.803 94.4624 158.07C97.4073 158.323 99.2195 137.642 99.2195 137.642L85.4545 136.523L85.4679 136.496Z" fill="#FFCF07"/>
<path d="M73.7286 83.5566C73.2089 87.9673 72.4361 91.725 75.0212 93.6172C77.6196 95.5094 76.8334 90.3125 78.6589 90.0594C80.4712 89.8062 79.7783 104.864 82.7231 105.13C85.668 105.383 87.4802 84.7026 87.4802 84.7026L73.7153 83.5833L73.7286 83.5566Z" fill="#A0D468"/>
<path d="M129.935 136.496C131.96 138.309 133.786 139.348 132.48 142.986C131.187 146.624 131.014 149.475 132.919 150.261C134.825 151.034 137.157 147.343 136.637 143.372C136.117 139.415 141.048 141.786 140.795 143.425C140.541 145.064 136.144 162.467 140.795 161.681C145.458 160.908 146.498 153.726 143.646 148.569C140.795 143.412 143.953 140.121 145.232 141.16C146.498 142.2 151.442 141.333 150.402 137.616C149.363 133.898 129.935 136.496 129.935 136.496Z" fill="#FFCF07"/>
<path d="M61.5098 84.1018C63.5352 85.914 65.3607 86.9534 64.0549 90.5912C62.7623 94.229 62.5891 97.0806 64.4946 97.8668C66.4001 98.6396 68.732 94.9486 68.2124 90.9776C67.6927 87.02 72.623 89.3919 72.3698 91.0309C72.1167 92.6699 67.7193 110.073 72.3698 109.287C77.0337 108.514 78.073 101.331 75.2214 96.1745C72.3698 91.0176 75.5279 87.7263 76.8071 88.7656C78.073 89.805 83.0167 88.9389 81.9773 85.2211C80.938 81.5034 61.5098 84.1018 61.5098 84.1018Z" fill="#A0D468"/>
</svg>
