<svg width="60" height="60" viewBox="0 0 60 60" fill="none" xmlns="http://www.w3.org/2000/svg">
<path d="M17.5 27.5C20.2614 27.5 22.5 25.2614 22.5 22.5C22.5 19.7386 20.2614 17.5 17.5 17.5C14.7386 17.5 12.5 19.7386 12.5 22.5C12.5 25.2614 14.7386 27.5 17.5 27.5Z" stroke="black" stroke-width="1.5" stroke-linecap="round" stroke-linejoin="round"/>
<path d="M13.9014 52.4996C27.8264 27.7496 39.4014 23.3994 52.5014 39.4744" stroke="black" stroke-width="1.5" stroke-linecap="round" stroke-linejoin="round"/>
<path d="M35.8751 7.5H12.5C9.84784 7.5 7.30429 8.55341 5.42892 10.4288C3.55356 12.3041 2.5 14.8478 2.5 17.5V42.5C2.5 45.1522 3.55356 47.6956 5.42892 49.5709C7.30429 51.4463 9.84784 52.5 12.5 52.5H42.5C45.1522 52.5 47.6957 51.4463 49.5711 49.5709C51.4464 47.6956 52.5 45.1522 52.5 42.5V22.5" stroke="black" stroke-width="1.5" stroke-linecap="round" stroke-linejoin="round"/>
<path d="M55.7745 7.92527L43.0246 20.6505C41.7746 21.9255 38.0245 22.5003 37.1745 21.6753C36.3245 20.8503 36.8996 17.0753 38.1746 15.8003L50.8997 3.07542C51.5428 2.41238 52.4229 2.03205 53.3466 2.01798C54.2702 2.00392 55.1616 2.35719 55.8246 3.00034C56.4876 3.64349 56.8681 4.52363 56.8822 5.44724C56.8962 6.37086 56.5428 7.26223 55.8997 7.92527H55.7745Z" stroke="black" stroke-width="1.5" stroke-linecap="round" stroke-linejoin="round"/>
</svg>
