<svg width="32" height="32" viewBox="0 0 32 32" fill="none" xmlns="http://www.w3.org/2000/svg">
<path d="M24.7995 27.9993C26.2722 27.9993 27.4661 26.8054 27.4661 25.3327C27.4661 23.8599 26.2722 22.666 24.7995 22.666C23.3267 22.666 22.1328 23.8599 22.1328 25.3327C22.1328 26.8054 23.3267 27.9993 24.7995 27.9993Z" stroke="black" stroke-width="1.5" stroke-linecap="round" stroke-linejoin="round"/>
<path d="M11.466 27.9993C12.9387 27.9993 14.1326 26.8054 14.1326 25.3327C14.1326 23.8599 12.9387 22.666 11.466 22.666C9.99322 22.666 8.79932 23.8599 8.79932 25.3327C8.79932 26.8054 9.99322 27.9993 11.466 27.9993Z" stroke="black" stroke-width="1.5" stroke-linecap="round" stroke-linejoin="round"/>
<path d="M2.6665 3.98654C2.6665 3.98654 8.85317 3.90654 7.99984 9.31987L7.07992 14.7332C6.94349 15.3823 6.95688 16.054 7.11922 16.6971C7.28156 17.3402 7.58853 17.9378 8.01668 18.4444C8.44484 18.951 8.98294 19.3532 9.59001 19.6204C10.1971 19.8876 10.8571 20.0129 11.5199 19.9865H22.1865C23.6637 19.9427 25.0824 19.3993 26.2109 18.4452C27.3394 17.4911 28.111 16.1825 28.3999 14.7332L29.3199 9.25322C29.4656 8.59684 29.4584 7.91576 29.299 7.26258C29.1396 6.6094 28.8322 6.00159 28.4005 5.48613C27.9688 4.97067 27.4244 4.56134 26.8093 4.28976C26.1943 4.01818 25.525 3.89165 24.8532 3.91989H13.2532" stroke="black" stroke-width="1.5" stroke-linecap="round" stroke-linejoin="round"/>
</svg>
